{
	"asset":{
		"generator":"Khronos glTF Blender I/O v4.1.63",
		"version":"2.0"
	},
	"scene":0,
	"scenes":[
		{
			"name":"Scene",
			"nodes":[
				0,
				1
			]
		}
	],
	"nodes":[
		{
			"mesh":0,
			"name":"Cylinder",
			"scale":[
				3.8621666431427,
				37.138668060302734,
				3.8621666431427
			],
			"translation":[
				-22.68113899230957,
				13.488870620727539,
				-44.28704833984375
			]
		},
		{
			"mesh":1,
			"name":"Cube.001",
			"rotation":[
				0,
				-0.3531392812728882,
				0,
				0.9355707764625549
			],
			"scale":[
				3.4100871086120605,
				3.4100873470306396,
				3.4100871086120605
			],
			"translation":[
				-44.94371032714844,
				38.97829055786133,
				-56.62721252441406
			]
		}
	],
	"meshes":[
		{
			"name":"Cylinder",
			"primitives":[
				{
					"attributes":{
						"POSITION":0,
						"NORMAL":1
					},
					"indices":2
				}
			]
		},
		{
			"name":"Cube",
			"primitives":[
				{
					"attributes":{
						"POSITION":3,
						"NORMAL":4
					},
					"indices":5
				}
			]
		}
	],
	"accessors":[
		{
			"bufferView":0,
			"componentType":5126,
			"count":144,
			"max":[
				-0.24759657680988312,
				0.7215232253074646,
				-0.35383784770965576
			],
			"min":[
				-6.530657768249512,
				-0.3104740083217621,
				-6.758092880249023
			],
			"type":"VEC3"
		},
		{
			"bufferView":1,
			"componentType":5126,
			"count":144,
			"type":"VEC3"
		},
		{
			"bufferView":2,
			"componentType":5123,
			"count":216,
			"type":"SCALAR"
		},
		{
			"bufferView":3,
			"componentType":5126,
			"count":120,
			"max":[
				2.940908193588257,
				1.295434832572937,
				4.09976863861084
			],
			"min":[
				0.4821058213710785,
				-0.921958327293396,
				-8.49257755279541
			],
			"type":"VEC3"
		},
		{
			"bufferView":4,
			"componentType":5126,
			"count":120,
			"type":"VEC3"
		},
		{
			"bufferView":5,
			"componentType":5123,
			"count":180,
			"type":"SCALAR"
		}
	],
	"bufferViews":[
		{
			"buffer":0,
			"byteLength":1728,
			"byteOffset":0,
			"target":34962
		},
		{
			"buffer":0,
			"byteLength":1728,
			"byteOffset":1728,
			"target":34962
		},
		{
			"buffer":0,
			"byteLength":432,
			"byteOffset":3456,
			"target":34963
		},
		{
			"buffer":0,
			"byteLength":1440,
			"byteOffset":3888,
			"target":34962
		},
		{
			"buffer":0,
			"byteLength":1440,
			"byteOffset":5328,
			"target":34962
		},
		{
			"buffer":0,
			"byteLength":360,
			"byteOffset":6768,
			"target":34963
		}
	],
	"buffers":[
		{
			"byteLength":7128,
			"uri":"pillars.bin"
		}
	]
}
