{
	"asset":{
		"generator":"Khronos glTF Blender I/O v4.1.63",
		"version":"2.0"
	},
	"scene":0,
	"scenes":[
		{
			"name":"Scene",
			"nodes":[
				0,
				1
			]
		}
	],
	"nodes":[
		{
			"mesh":0,
			"name":"head_004_r_high_1"
		},
		{
			"mesh":1,
			"name":"hair_000_u_high_1"
		}
	],
	"materials":[
		{
			"doubleSided":true,
			"name":"Material",
			"pbrMetallicRoughness":{
				"baseColorTexture":{
					"index":0
				},
				"metallicFactor":0,
				"roughnessFactor":0.5
			}
		},
		{
			"doubleSided":true,
			"name":"Material.001",
			"pbrMetallicRoughness":{
				"baseColorTexture":{
					"index":1
				},
				"metallicFactor":0,
				"roughnessFactor":0.5
			}
		}
	],
	"meshes":[
		{
			"name":"head_004_r_high_1",
			"primitives":[
				{
					"attributes":{
						"POSITION":0,
						"NORMAL":1,
						"TEXCOORD_0":2
					},
					"indices":3,
					"material":0
				}
			]
		},
		{
			"name":"hair_000_u_high_1",
			"primitives":[
				{
					"attributes":{
						"POSITION":4,
						"NORMAL":5,
						"TEXCOORD_0":6
					},
					"indices":7,
					"material":1
				}
			]
		}
	],
	"textures":[
		{
			"sampler":0,
			"source":0
		},
		{
			"sampler":0,
			"source":1
		}
	],
	"images":[
		{
			"mimeType":"image/png",
			"name":"body_base_color_diffuse",
			"uri":"body_base_color_diffuse.png"
		},
		{
			"mimeType":"image/png",
			"name":"hair_base_color",
			"uri":"hair_base_color.png"
		}
	],
	"accessors":[
		{
			"bufferView":0,
			"componentType":5126,
			"count":15522,
			"max":[
				0.4956321120262146,
				1.7924262285232544,
				0.22049647569656372
			],
			"min":[
				-0.5009090304374695,
				0.014995813369750977,
				-0.017352774739265442
			],
			"type":"VEC3"
		},
		{
			"bufferView":1,
			"componentType":5126,
			"count":15522,
			"type":"VEC3"
		},
		{
			"bufferView":2,
			"componentType":5126,
			"count":15522,
			"type":"VEC2"
		},
		{
			"bufferView":3,
			"componentType":5123,
			"count":16191,
			"type":"SCALAR"
		},
		{
			"bufferView":4,
			"componentType":5126,
			"count":3174,
			"max":[
				0.10220137983560562,
				1.8198778629302979,
				0.20422649383544922
			],
			"min":[
				-0.10995125025510788,
				1.56636643409729,
				-0.012470409274101257
			],
			"type":"VEC3"
		},
		{
			"bufferView":5,
			"componentType":5126,
			"count":3174,
			"type":"VEC3"
		},
		{
			"bufferView":6,
			"componentType":5126,
			"count":3174,
			"type":"VEC2"
		},
		{
			"bufferView":7,
			"componentType":5123,
			"count":4044,
			"type":"SCALAR"
		}
	],
	"bufferViews":[
		{
			"buffer":0,
			"byteLength":186264,
			"byteOffset":0,
			"target":34962
		},
		{
			"buffer":0,
			"byteLength":186264,
			"byteOffset":186264,
			"target":34962
		},
		{
			"buffer":0,
			"byteLength":124176,
			"byteOffset":372528,
			"target":34962
		},
		{
			"buffer":0,
			"byteLength":32382,
			"byteOffset":496704,
			"target":34963
		},
		{
			"buffer":0,
			"byteLength":38088,
			"byteOffset":529088,
			"target":34962
		},
		{
			"buffer":0,
			"byteLength":38088,
			"byteOffset":567176,
			"target":34962
		},
		{
			"buffer":0,
			"byteLength":25392,
			"byteOffset":605264,
			"target":34962
		},
		{
			"buffer":0,
			"byteLength":8088,
			"byteOffset":630656,
			"target":34963
		}
	],
	"samplers":[
		{
			"magFilter":9729,
			"minFilter":9987
		}
	],
	"buffers":[
		{
			"byteLength":638744,
			"uri":"gtp_woman_base.bin"
		}
	]
}
