{
	"asset":{
		"generator":"Khronos glTF Blender I/O v4.1.63",
		"version":"2.0"
	},
	"scene":0,
	"scenes":[
		{
			"name":"Scene",
			"nodes":[
				0
			]
		}
	],
	"nodes":[
		{
			"mesh":0,
			"name":"Cube",
			"scale":[
				0.7429721355438232,
				1,
				1
			]
		}
	],
	"materials":[
		{
			"doubleSided":true,
			"name":"Material",
			"pbrMetallicRoughness":{
				"baseColorTexture":{
					"index":0
				},
				"metallicFactor":0,
				"roughnessFactor":0.5
			}
		}
	],
	"meshes":[
		{
			"name":"Cube",
			"primitives":[
				{
					"attributes":{
						"POSITION":0,
						"NORMAL":1,
						"TEXCOORD_0":2
					},
					"indices":3,
					"material":0
				}
			]
		}
	],
	"textures":[
		{
			"sampler":0,
			"source":0
		}
	],
	"images":[
		{
			"mimeType":"image/png",
			"name":"BaseColor",
			"uri":"BaseColor.png"
		}
	],
	"accessors":[
		{
			"bufferView":0,
			"componentType":5126,
			"count":1756,
			"max":[
				40.562721252441406,
				2.259629249572754,
				30.155784606933594
			],
			"min":[
				-40.562713623046875,
				-0.22079996764659882,
				-29.962989807128906
			],
			"type":"VEC3"
		},
		{
			"bufferView":1,
			"componentType":5126,
			"count":1756,
			"type":"VEC3"
		},
		{
			"bufferView":2,
			"componentType":5126,
			"count":1756,
			"type":"VEC2"
		},
		{
			"bufferView":3,
			"componentType":5123,
			"count":8088,
			"type":"SCALAR"
		}
	],
	"bufferViews":[
		{
			"buffer":0,
			"byteLength":21072,
			"byteOffset":0,
			"target":34962
		},
		{
			"buffer":0,
			"byteLength":21072,
			"byteOffset":21072,
			"target":34962
		},
		{
			"buffer":0,
			"byteLength":14048,
			"byteOffset":42144,
			"target":34962
		},
		{
			"buffer":0,
			"byteLength":16176,
			"byteOffset":56192,
			"target":34963
		}
	],
	"samplers":[
		{
			"magFilter":9729,
			"minFilter":9987
		}
	],
	"buffers":[
		{
			"byteLength":72368,
			"uri":"w_scene.bin"
		}
	]
}
