{
	"asset":{
		"generator":"Khronos glTF Blender I/O v4.1.63",
		"version":"2.0"
	},
	"extensionsUsed":[
		"KHR_texture_transform"
	],
	"extensionsRequired":[
		"KHR_texture_transform"
	],
	"scene":0,
	"scenes":[
		{
			"name":"Scene",
			"nodes":[
				0,
				1,
				2,
				3,
				4,
				5,
				6,
				7,
				8,
				9
			]
		}
	],
	"nodes":[
		{
			"mesh":0,
			"name":"Plane.001",
			"scale":[
				0.16545958817005157,
				0.17608927190303802,
				0.17608927190303802
			],
			"translation":[
				2.9760475158691406,
				0.774728536605835,
				0
			]
		},
		{
			"mesh":1,
			"name":"Cylinder"
		},
		{
			"mesh":2,
			"name":"Cube.001"
		},
		{
			"mesh":3,
			"name":"Sphere"
		},
		{
			"mesh":4,
			"name":"Plane"
		},
		{
			"mesh":5,
			"name":"Cube"
		},
		{
			"mesh":6,
			"name":"Cube.002"
		},
		{
			"mesh":7,
			"name":"Cube.003"
		},
		{
			"mesh":8,
			"name":"BarramundiFish"
		},
		{
			"mesh":9,
			"name":"ground"
		}
	],
	"materials":[
		{
			"alphaMode":"BLEND",
			"doubleSided":true,
			"name":"Material.011",
			"pbrMetallicRoughness":{
				"baseColorFactor":[
					1,
					1,
					1,
					0.8981817960739136
				],
				"baseColorTexture":{
					"index":0
				},
				"metallicFactor":0,
				"roughnessFactor":0.5
			}
		},
		{
			"doubleSided":true,
			"name":"Material.003",
			"pbrMetallicRoughness":{
				"baseColorTexture":{
					"index":1
				},
				"metallicFactor":0,
				"roughnessFactor":0.5
			}
		},
		{
			"doubleSided":true,
			"name":"Material.004",
			"pbrMetallicRoughness":{
				"baseColorTexture":{
					"index":2
				},
				"metallicFactor":0,
				"roughnessFactor":0.5
			}
		},
		{
			"doubleSided":true,
			"name":"Material.002",
			"pbrMetallicRoughness":{
				"baseColorTexture":{
					"index":3
				},
				"metallicFactor":0,
				"roughnessFactor":0.5
			}
		},
		{
			"doubleSided":true,
			"name":"Material.009",
			"normalTexture":{
				"index":4
			},
			"pbrMetallicRoughness":{
				"baseColorTexture":{
					"index":5
				},
				"metallicFactor":0,
				"roughnessFactor":0.5
			}
		},
		{
			"doubleSided":true,
			"name":"Material.005",
			"normalTexture":{
				"index":6
			},
			"pbrMetallicRoughness":{
				"baseColorTexture":{
					"index":7
				},
				"metallicFactor":0,
				"roughnessFactor":0.5
			}
		},
		{
			"doubleSided":true,
			"name":"Material.001",
			"pbrMetallicRoughness":{
				"baseColorTexture":{
					"index":8
				},
				"metallicFactor":0,
				"roughnessFactor":0.5
			}
		},
		{
			"doubleSided":true,
			"name":"Material.007",
			"pbrMetallicRoughness":{
				"baseColorTexture":{
					"index":9
				},
				"metallicFactor":0,
				"roughnessFactor":0.5
			}
		},
		{
			"name":"7288_barramundi fish_col",
			"normalTexture":{
				"index":10
			},
			"occlusionTexture":{
				"index":11
			},
			"pbrMetallicRoughness":{
				"baseColorTexture":{
					"index":12
				},
				"metallicRoughnessTexture":{
					"index":11
				}
			}
		},
		{
			"doubleSided":true,
			"name":"Material.006",
			"normalTexture":{
				"extensions":{
					"KHR_texture_transform":{
						"offset":[
							0,
							-4.999999523162842
						],
						"scale":[
							4.699999809265137,
							5.999999523162842
						]
					}
				},
				"index":13
			},
			"pbrMetallicRoughness":{
				"baseColorTexture":{
					"extensions":{
						"KHR_texture_transform":{
							"offset":[
								0,
								-4.999999523162842
							],
							"scale":[
								4.699999809265137,
								5.999999523162842
							]
						}
					},
					"index":14
				},
				"metallicFactor":0,
				"metallicRoughnessTexture":{
					"extensions":{
						"KHR_texture_transform":{
							"offset":[
								0,
								-4.999999523162842
							],
							"scale":[
								4.699999809265137,
								5.999999523162842
							]
						}
					},
					"index":15
				}
			}
		}
	],
	"meshes":[
		{
			"name":"Plane.004",
			"primitives":[
				{
					"attributes":{
						"POSITION":0,
						"NORMAL":1,
						"TEXCOORD_0":2
					},
					"indices":3,
					"material":0
				}
			]
		},
		{
			"name":"Cylinder",
			"primitives":[
				{
					"attributes":{
						"POSITION":4,
						"NORMAL":5,
						"TEXCOORD_0":6
					},
					"indices":7,
					"material":1
				}
			]
		},
		{
			"name":"Cube",
			"primitives":[
				{
					"attributes":{
						"POSITION":8,
						"NORMAL":9,
						"TEXCOORD_0":10
					},
					"indices":11,
					"material":2
				}
			]
		},
		{
			"name":"Sphere",
			"primitives":[
				{
					"attributes":{
						"POSITION":12,
						"NORMAL":13,
						"TEXCOORD_0":14
					},
					"indices":15,
					"material":3
				}
			]
		},
		{
			"name":"Plane.001",
			"primitives":[
				{
					"attributes":{
						"POSITION":16,
						"NORMAL":17,
						"TEXCOORD_0":18
					},
					"indices":19,
					"material":4
				}
			]
		},
		{
			"name":"Cube.003",
			"primitives":[
				{
					"attributes":{
						"POSITION":20,
						"NORMAL":21,
						"TEXCOORD_0":22
					},
					"indices":23,
					"material":5
				}
			]
		},
		{
			"name":"Cube.001",
			"primitives":[
				{
					"attributes":{
						"POSITION":24,
						"NORMAL":25,
						"TEXCOORD_0":26
					},
					"indices":27,
					"material":6
				}
			]
		},
		{
			"name":"Cube.002",
			"primitives":[
				{
					"attributes":{
						"POSITION":28,
						"NORMAL":29,
						"TEXCOORD_0":30
					},
					"indices":31,
					"material":7
				}
			]
		},
		{
			"name":"barramundi_fish_Hero",
			"primitives":[
				{
					"attributes":{
						"POSITION":32,
						"NORMAL":33,
						"TEXCOORD_0":34
					},
					"indices":35,
					"material":8
				}
			]
		},
		{
			"name":"Plane.002",
			"primitives":[
				{
					"attributes":{
						"POSITION":36,
						"NORMAL":37,
						"TEXCOORD_0":38
					},
					"indices":39,
					"material":9
				}
			]
		}
	],
	"textures":[
		{
			"sampler":0,
			"source":0
		},
		{
			"sampler":0,
			"source":1
		},
		{
			"sampler":0,
			"source":2
		},
		{
			"sampler":0,
			"source":3
		},
		{
			"sampler":0,
			"source":4
		},
		{
			"sampler":0,
			"source":5
		},
		{
			"sampler":0,
			"source":6
		},
		{
			"sampler":0,
			"source":7
		},
		{
			"sampler":0,
			"source":8
		},
		{
			"sampler":0,
			"source":9
		},
		{
			"sampler":0,
			"source":10
		},
		{
			"sampler":0,
			"source":11
		},
		{
			"sampler":0,
			"source":12
		},
		{
			"sampler":0,
			"source":13
		},
		{
			"sampler":0,
			"source":14
		},
		{
			"sampler":0,
			"source":15
		}
	],
	"images":[
		{
			"mimeType":"image/png",
			"name":"baked_water",
			"uri":"baked_water.png"
		},
		{
			"mimeType":"image/png",
			"name":"Pillars_BaseColor",
			"uri":"Pillars_BaseColor.png"
		},
		{
			"mimeType":"image/png",
			"name":"Pillar_Stone_BaseColor",
			"uri":"Pillar_Stone_BaseColor.png"
		},
		{
			"mimeType":"image/png",
			"name":"Rock_BaseColor",
			"uri":"Rock_BaseColor.png"
		},
		{
			"mimeType":"image/png",
			"name":"ground_normal",
			"uri":"ground_normal.png"
		},
		{
			"mimeType":"image/png",
			"name":"Floor_Plane_BaseColor",
			"uri":"Floor_Plane_BaseColor.png"
		},
		{
			"mimeType":"image/png",
			"name":"bricks_normal",
			"uri":"bricks_normal.png"
		},
		{
			"mimeType":"image/png",
			"name":"baked_bricks",
			"uri":"baked_bricks.png"
		},
		{
			"mimeType":"image/png",
			"name":"Saguaro_BaseColor",
			"uri":"Saguaro_BaseColor.png"
		},
		{
			"mimeType":"image/png",
			"name":"Pool_Statue_BaseColor",
			"uri":"Pool_Statue_BaseColor.png"
		},
		{
			"mimeType":"image/png",
			"name":"BarramundiFish_normal",
			"uri":"BarramundiFish_normal.png"
		},
		{
			"mimeType":"image/png",
			"name":"BarramundiFish_occlusionRoughnessMetallic",
			"uri":"BarramundiFish_occlusionRoughnessMetallic.png"
		},
		{
			"mimeType":"image/png",
			"name":"BarramundiFish_baseColor",
			"uri":"BarramundiFish_baseColor.png"
		},
		{
			"mimeType":"image/png",
			"name":"outer_ground_normal",
			"uri":"outer_ground_normal.png"
		},
		{
			"mimeType":"image/png",
			"name":"ground_diffuse",
			"uri":"ground_diffuse.png"
		},
		{
			"mimeType":"image/png",
			"name":"gravel_road_rough_4k",
			"uri":"gravel_road_rough_4k.png"
		}
	],
	"accessors":[
		{
			"bufferView":0,
			"componentType":5126,
			"count":186,
			"max":[
				-9.335332870483398,
				-0.880183219909668,
				20.622570037841797
			],
			"min":[
				-93.2043228149414,
				-0.880183219909668,
				-57.130882263183594
			],
			"type":"VEC3"
		},
		{
			"bufferView":1,
			"componentType":5126,
			"count":186,
			"type":"VEC3"
		},
		{
			"bufferView":2,
			"componentType":5126,
			"count":186,
			"type":"VEC2"
		},
		{
			"bufferView":3,
			"componentType":5123,
			"count":963,
			"type":"SCALAR"
		},
		{
			"bufferView":4,
			"componentType":5126,
			"count":144,
			"max":[
				-3.5248260498046875,
				4.581047534942627,
				-4.327498912811279
			],
			"min":[
				-6.769707679748535,
				-0.5440406799316406,
				-7.634970664978027
			],
			"type":"VEC3"
		},
		{
			"bufferView":5,
			"componentType":5126,
			"count":144,
			"type":"VEC3"
		},
		{
			"bufferView":6,
			"componentType":5126,
			"count":144,
			"type":"VEC2"
		},
		{
			"bufferView":7,
			"componentType":5123,
			"count":216,
			"type":"SCALAR"
		},
		{
			"bufferView":8,
			"componentType":5126,
			"count":120,
			"max":[
				-2.8449244499206543,
				4.9969916343688965,
				-3.672244071960449
			],
			"min":[
				-7.349248886108398,
				3.9858665466308594,
				-8.374402046203613
			],
			"type":"VEC3"
		},
		{
			"bufferView":9,
			"componentType":5126,
			"count":120,
			"type":"VEC3"
		},
		{
			"bufferView":10,
			"componentType":5126,
			"count":120,
			"type":"VEC2"
		},
		{
			"bufferView":11,
			"componentType":5123,
			"count":180,
			"type":"SCALAR"
		},
		{
			"bufferView":12,
			"componentType":5126,
			"count":419,
			"max":[
				-3.837066173553467,
				4.109666347503662,
				4.244266033172607
			],
			"min":[
				-13.434673309326172,
				0.36486169695854187,
				-5.454187870025635
			],
			"type":"VEC3"
		},
		{
			"bufferView":13,
			"componentType":5126,
			"count":419,
			"type":"VEC3"
		},
		{
			"bufferView":14,
			"componentType":5126,
			"count":419,
			"type":"VEC2"
		},
		{
			"bufferView":15,
			"componentType":5123,
			"count":708,
			"type":"SCALAR"
		},
		{
			"bufferView":16,
			"componentType":5126,
			"count":788,
			"max":[
				2.33711576461792,
				0.7553051710128784,
				6.382343292236328
			],
			"min":[
				-9.645051002502441,
				0.40475451946258545,
				-7.899864196777344
			],
			"type":"VEC3"
		},
		{
			"bufferView":17,
			"componentType":5126,
			"count":788,
			"type":"VEC3"
		},
		{
			"bufferView":18,
			"componentType":5126,
			"count":788,
			"type":"VEC2"
		},
		{
			"bufferView":19,
			"componentType":5123,
			"count":3312,
			"type":"SCALAR"
		},
		{
			"bufferView":20,
			"componentType":5126,
			"count":340,
			"max":[
				4.85228157043457,
				0.9215971231460571,
				7.918391227722168
			],
			"min":[
				-11.987405776977539,
				-0.4334813356399536,
				-10.18648910522461
			],
			"type":"VEC3"
		},
		{
			"bufferView":21,
			"componentType":5126,
			"count":340,
			"type":"VEC3"
		},
		{
			"bufferView":22,
			"componentType":5126,
			"count":340,
			"type":"VEC2"
		},
		{
			"bufferView":23,
			"componentType":5123,
			"count":1344,
			"type":"SCALAR"
		},
		{
			"bufferView":24,
			"componentType":5126,
			"count":4760,
			"max":[
				-2.7620577812194824,
				4.653415679931641,
				2.029761552810669
			],
			"min":[
				-4.165005683898926,
				0.656312108039856,
				0.9162502884864807
			],
			"type":"VEC3"
		},
		{
			"bufferView":25,
			"componentType":5126,
			"count":4760,
			"type":"VEC3"
		},
		{
			"bufferView":26,
			"componentType":5126,
			"count":4760,
			"type":"VEC2"
		},
		{
			"bufferView":27,
			"componentType":5123,
			"count":18816,
			"type":"SCALAR"
		},
		{
			"bufferView":28,
			"componentType":5126,
			"count":104,
			"max":[
				1.1950125694274902,
				4.718982696533203,
				-2.926635503768921
			],
			"min":[
				-2.907214641571045,
				1.1673791408538818,
				-5.902505397796631
			],
			"type":"VEC3"
		},
		{
			"bufferView":29,
			"componentType":5126,
			"count":104,
			"type":"VEC3"
		},
		{
			"bufferView":30,
			"componentType":5126,
			"count":104,
			"type":"VEC2"
		},
		{
			"bufferView":31,
			"componentType":5123,
			"count":108,
			"type":"SCALAR"
		},
		{
			"bufferView":32,
			"componentType":5126,
			"count":6564,
			"max":[
				-4.8846755027771,
				0.6549357771873474,
				-1.4171589612960815
			],
			"min":[
				-5.177292823791504,
				0.42095959186553955,
				-2.1041767597198486
			],
			"type":"VEC3"
		},
		{
			"bufferView":33,
			"componentType":5126,
			"count":6564,
			"type":"VEC3"
		},
		{
			"bufferView":34,
			"componentType":5126,
			"count":6564,
			"type":"VEC2"
		},
		{
			"bufferView":35,
			"componentType":5123,
			"count":34776,
			"type":"SCALAR"
		},
		{
			"bufferView":36,
			"componentType":5126,
			"count":1089,
			"max":[
				21.787015914916992,
				0.4854047894477844,
				21.005905151367188
			],
			"min":[
				-20.136011123657227,
				0.4854047894477844,
				-20.91712188720703
			],
			"type":"VEC3"
		},
		{
			"bufferView":37,
			"componentType":5126,
			"count":1089,
			"type":"VEC3"
		},
		{
			"bufferView":38,
			"componentType":5126,
			"count":1089,
			"type":"VEC2"
		},
		{
			"bufferView":39,
			"componentType":5123,
			"count":6144,
			"type":"SCALAR"
		}
	],
	"bufferViews":[
		{
			"buffer":0,
			"byteLength":2232,
			"byteOffset":0,
			"target":34962
		},
		{
			"buffer":0,
			"byteLength":2232,
			"byteOffset":2232,
			"target":34962
		},
		{
			"buffer":0,
			"byteLength":1488,
			"byteOffset":4464,
			"target":34962
		},
		{
			"buffer":0,
			"byteLength":1926,
			"byteOffset":5952,
			"target":34963
		},
		{
			"buffer":0,
			"byteLength":1728,
			"byteOffset":7880,
			"target":34962
		},
		{
			"buffer":0,
			"byteLength":1728,
			"byteOffset":9608,
			"target":34962
		},
		{
			"buffer":0,
			"byteLength":1152,
			"byteOffset":11336,
			"target":34962
		},
		{
			"buffer":0,
			"byteLength":432,
			"byteOffset":12488,
			"target":34963
		},
		{
			"buffer":0,
			"byteLength":1440,
			"byteOffset":12920,
			"target":34962
		},
		{
			"buffer":0,
			"byteLength":1440,
			"byteOffset":14360,
			"target":34962
		},
		{
			"buffer":0,
			"byteLength":960,
			"byteOffset":15800,
			"target":34962
		},
		{
			"buffer":0,
			"byteLength":360,
			"byteOffset":16760,
			"target":34963
		},
		{
			"buffer":0,
			"byteLength":5028,
			"byteOffset":17120,
			"target":34962
		},
		{
			"buffer":0,
			"byteLength":5028,
			"byteOffset":22148,
			"target":34962
		},
		{
			"buffer":0,
			"byteLength":3352,
			"byteOffset":27176,
			"target":34962
		},
		{
			"buffer":0,
			"byteLength":1416,
			"byteOffset":30528,
			"target":34963
		},
		{
			"buffer":0,
			"byteLength":9456,
			"byteOffset":31944,
			"target":34962
		},
		{
			"buffer":0,
			"byteLength":9456,
			"byteOffset":41400,
			"target":34962
		},
		{
			"buffer":0,
			"byteLength":6304,
			"byteOffset":50856,
			"target":34962
		},
		{
			"buffer":0,
			"byteLength":6624,
			"byteOffset":57160,
			"target":34963
		},
		{
			"buffer":0,
			"byteLength":4080,
			"byteOffset":63784,
			"target":34962
		},
		{
			"buffer":0,
			"byteLength":4080,
			"byteOffset":67864,
			"target":34962
		},
		{
			"buffer":0,
			"byteLength":2720,
			"byteOffset":71944,
			"target":34962
		},
		{
			"buffer":0,
			"byteLength":2688,
			"byteOffset":74664,
			"target":34963
		},
		{
			"buffer":0,
			"byteLength":57120,
			"byteOffset":77352,
			"target":34962
		},
		{
			"buffer":0,
			"byteLength":57120,
			"byteOffset":134472,
			"target":34962
		},
		{
			"buffer":0,
			"byteLength":38080,
			"byteOffset":191592,
			"target":34962
		},
		{
			"buffer":0,
			"byteLength":37632,
			"byteOffset":229672,
			"target":34963
		},
		{
			"buffer":0,
			"byteLength":1248,
			"byteOffset":267304,
			"target":34962
		},
		{
			"buffer":0,
			"byteLength":1248,
			"byteOffset":268552,
			"target":34962
		},
		{
			"buffer":0,
			"byteLength":832,
			"byteOffset":269800,
			"target":34962
		},
		{
			"buffer":0,
			"byteLength":216,
			"byteOffset":270632,
			"target":34963
		},
		{
			"buffer":0,
			"byteLength":78768,
			"byteOffset":270848,
			"target":34962
		},
		{
			"buffer":0,
			"byteLength":78768,
			"byteOffset":349616,
			"target":34962
		},
		{
			"buffer":0,
			"byteLength":52512,
			"byteOffset":428384,
			"target":34962
		},
		{
			"buffer":0,
			"byteLength":69552,
			"byteOffset":480896,
			"target":34963
		},
		{
			"buffer":0,
			"byteLength":13068,
			"byteOffset":550448,
			"target":34962
		},
		{
			"buffer":0,
			"byteLength":13068,
			"byteOffset":563516,
			"target":34962
		},
		{
			"buffer":0,
			"byteLength":8712,
			"byteOffset":576584,
			"target":34962
		},
		{
			"buffer":0,
			"byteLength":12288,
			"byteOffset":585296,
			"target":34963
		}
	],
	"samplers":[
		{
			"magFilter":9729,
			"minFilter":9987
		}
	],
	"buffers":[
		{
			"byteLength":597584,
			"uri":"testScene.bin"
		}
	]
}
