{
	"asset":{
		"generator":"Khronos glTF Blender I/O v4.1.63",
		"version":"2.0"
	},
	"extensionsUsed":[
		"KHR_texture_transform"
	],
	"extensionsRequired":[
		"KHR_texture_transform"
	],
	"scene":0,
	"scenes":[
		{
			"name":"Scene",
			"nodes":[
				0,
				1,
				2,
				3,
				4,
				5,
				6,
				7,
				8
			]
		}
	],
	"nodes":[
		{
			"mesh":0,
			"name":"Cylinder"
		},
		{
			"mesh":1,
			"name":"Cube.001"
		},
		{
			"mesh":2,
			"name":"Sphere"
		},
		{
			"mesh":3,
			"name":"Plane"
		},
		{
			"mesh":4,
			"name":"Cube"
		},
		{
			"mesh":5,
			"name":"Cube.002"
		},
		{
			"mesh":6,
			"name":"Cube.003"
		},
		{
			"mesh":7,
			"name":"BarramundiFish"
		},
		{
			"mesh":8,
			"name":"ground"
		}
	],
	"materials":[
		{
			"doubleSided":true,
			"name":"Material.003",
			"pbrMetallicRoughness":{
				"baseColorTexture":{
					"index":0
				},
				"metallicFactor":0,
				"roughnessFactor":0.5
			}
		},
		{
			"doubleSided":true,
			"name":"Material.004",
			"pbrMetallicRoughness":{
				"baseColorTexture":{
					"index":1
				},
				"metallicFactor":0,
				"roughnessFactor":0.5
			}
		},
		{
			"doubleSided":true,
			"name":"Material.002",
			"pbrMetallicRoughness":{
				"baseColorTexture":{
					"index":2
				},
				"metallicFactor":0,
				"roughnessFactor":0.5
			}
		},
		{
			"doubleSided":true,
			"name":"Material.009",
			"pbrMetallicRoughness":{
				"baseColorTexture":{
					"index":3
				},
				"metallicFactor":0,
				"roughnessFactor":0.5
			}
		},
		{
			"doubleSided":true,
			"name":"Material.005",
			"normalTexture":{
				"index":4
			},
			"pbrMetallicRoughness":{
				"baseColorTexture":{
					"index":5
				},
				"metallicFactor":0,
				"roughnessFactor":0.5
			}
		},
		{
			"doubleSided":true,
			"name":"Material.001",
			"pbrMetallicRoughness":{
				"baseColorTexture":{
					"index":6
				},
				"metallicFactor":0,
				"roughnessFactor":0.5
			}
		},
		{
			"doubleSided":true,
			"name":"Material.007",
			"pbrMetallicRoughness":{
				"baseColorTexture":{
					"index":7
				},
				"metallicFactor":0,
				"roughnessFactor":0.5
			}
		},
		{
			"name":"7288_barramundi fish_col",
			"normalTexture":{
				"index":8
			},
			"occlusionTexture":{
				"index":9
			},
			"pbrMetallicRoughness":{
				"baseColorTexture":{
					"index":10
				},
				"metallicRoughnessTexture":{
					"index":9
				}
			}
		},
		{
			"doubleSided":true,
			"name":"Material.006",
			"normalTexture":{
				"extensions":{
					"KHR_texture_transform":{
						"offset":[
							0,
							-4.999999523162842
						],
						"scale":[
							4.699999809265137,
							5.999999523162842
						]
					}
				},
				"index":11
			},
			"pbrMetallicRoughness":{
				"baseColorTexture":{
					"extensions":{
						"KHR_texture_transform":{
							"offset":[
								0,
								-4.999999523162842
							],
							"scale":[
								4.699999809265137,
								5.999999523162842
							]
						}
					},
					"index":12
				},
				"metallicFactor":0,
				"metallicRoughnessTexture":{
					"extensions":{
						"KHR_texture_transform":{
							"offset":[
								0,
								-4.999999523162842
							],
							"scale":[
								4.699999809265137,
								5.999999523162842
							]
						}
					},
					"index":13
				}
			}
		}
	],
	"meshes":[
		{
			"name":"Cylinder",
			"primitives":[
				{
					"attributes":{
						"POSITION":0,
						"NORMAL":1,
						"TEXCOORD_0":2
					},
					"indices":3,
					"material":0
				}
			]
		},
		{
			"name":"Cube",
			"primitives":[
				{
					"attributes":{
						"POSITION":4,
						"NORMAL":5,
						"TEXCOORD_0":6
					},
					"indices":7,
					"material":1
				}
			]
		},
		{
			"name":"Sphere",
			"primitives":[
				{
					"attributes":{
						"POSITION":8,
						"NORMAL":9,
						"TEXCOORD_0":10
					},
					"indices":11,
					"material":2
				}
			]
		},
		{
			"name":"Plane.001",
			"primitives":[
				{
					"attributes":{
						"POSITION":12,
						"NORMAL":13,
						"TEXCOORD_0":14
					},
					"indices":15,
					"material":3
				}
			]
		},
		{
			"name":"Cube.003",
			"primitives":[
				{
					"attributes":{
						"POSITION":16,
						"NORMAL":17,
						"TEXCOORD_0":18
					},
					"indices":19,
					"material":4
				}
			]
		},
		{
			"name":"Cube.001",
			"primitives":[
				{
					"attributes":{
						"POSITION":20,
						"NORMAL":21,
						"TEXCOORD_0":22
					},
					"indices":23,
					"material":5
				}
			]
		},
		{
			"name":"Cube.002",
			"primitives":[
				{
					"attributes":{
						"POSITION":24,
						"NORMAL":25,
						"TEXCOORD_0":26
					},
					"indices":27,
					"material":6
				}
			]
		},
		{
			"name":"barramundi_fish_Hero",
			"primitives":[
				{
					"attributes":{
						"POSITION":28,
						"NORMAL":29,
						"TEXCOORD_0":30
					},
					"indices":31,
					"material":7
				}
			]
		},
		{
			"name":"Plane.002",
			"primitives":[
				{
					"attributes":{
						"POSITION":32,
						"NORMAL":33,
						"TEXCOORD_0":34
					},
					"indices":35,
					"material":8
				}
			]
		}
	],
	"textures":[
		{
			"sampler":0,
			"source":0
		},
		{
			"sampler":0,
			"source":1
		},
		{
			"sampler":0,
			"source":2
		},
		{
			"sampler":0,
			"source":3
		},
		{
			"sampler":0,
			"source":4
		},
		{
			"sampler":0,
			"source":5
		},
		{
			"sampler":0,
			"source":6
		},
		{
			"sampler":0,
			"source":7
		},
		{
			"sampler":0,
			"source":8
		},
		{
			"sampler":0,
			"source":9
		},
		{
			"sampler":0,
			"source":10
		},
		{
			"sampler":0,
			"source":11
		},
		{
			"sampler":0,
			"source":12
		},
		{
			"sampler":0,
			"source":13
		}
	],
	"images":[
		{
			"mimeType":"image/png",
			"name":"Pillars_BaseColor",
			"uri":"Pillars_BaseColor.png"
		},
		{
			"mimeType":"image/png",
			"name":"Pillar_Stone_BaseColor",
			"uri":"Pillar_Stone_BaseColor.png"
		},
		{
			"mimeType":"image/png",
			"name":"Rock_BaseColor",
			"uri":"Rock_BaseColor.png"
		},
		{
			"mimeType":"image/png",
			"name":"Floor_Plane_BaseColor",
			"uri":"Floor_Plane_BaseColor.png"
		},
		{
			"mimeType":"image/png",
			"name":"bricks_normal",
			"uri":"bricks_normal.png"
		},
		{
			"mimeType":"image/png",
			"name":"baked_bricks",
			"uri":"baked_bricks.png"
		},
		{
			"mimeType":"image/png",
			"name":"Saguaro_BaseColor",
			"uri":"Saguaro_BaseColor.png"
		},
		{
			"mimeType":"image/png",
			"name":"Pool_Statue_BaseColor",
			"uri":"Pool_Statue_BaseColor.png"
		},
		{
			"mimeType":"image/png",
			"name":"BarramundiFish_normal",
			"uri":"BarramundiFish_normal.png"
		},
		{
			"mimeType":"image/png",
			"name":"BarramundiFish_occlusionRoughnessMetallic",
			"uri":"BarramundiFish_occlusionRoughnessMetallic.png"
		},
		{
			"mimeType":"image/png",
			"name":"BarramundiFish_baseColor",
			"uri":"BarramundiFish_baseColor.png"
		},
		{
			"mimeType":"image/png",
			"name":"ground_normal",
			"uri":"ground_normal.png"
		},
		{
			"mimeType":"image/png",
			"name":"ground_diffuse",
			"uri":"ground_diffuse.png"
		},
		{
			"mimeType":"image/png",
			"name":"gravel_road_rough_4k",
			"uri":"gravel_road_rough_4k.png"
		}
	],
	"accessors":[
		{
			"bufferView":0,
			"componentType":5126,
			"count":144,
			"max":[
				-32.53310775756836,
				28.394453048706055,
				-32.69435501098633
			],
			"min":[
				-56.799339294433594,
				-9.932548522949219,
				-57.42865753173828
			],
			"type":"VEC3"
		},
		{
			"bufferView":1,
			"componentType":5126,
			"count":144,
			"type":"VEC3"
		},
		{
			"bufferView":2,
			"componentType":5126,
			"count":144,
			"type":"VEC2"
		},
		{
			"bufferView":3,
			"componentType":5123,
			"count":216,
			"type":"SCALAR"
		},
		{
			"bufferView":4,
			"componentType":5126,
			"count":120,
			"max":[
				-27.448591232299805,
				31.5050106048584,
				-27.794157028198242
			],
			"min":[
				-61.133331298828125,
				23.943504333496094,
				-62.958351135253906
			],
			"type":"VEC3"
		},
		{
			"bufferView":5,
			"componentType":5126,
			"count":120,
			"type":"VEC3"
		},
		{
			"bufferView":6,
			"componentType":5126,
			"count":120,
			"type":"VEC2"
		},
		{
			"bufferView":7,
			"componentType":5123,
			"count":180,
			"type":"SCALAR"
		},
		{
			"bufferView":8,
			"componentType":5126,
			"count":419,
			"max":[
				-34.86813735961914,
				24.86931800842285,
				31.4079647064209
			],
			"min":[
				-106.64202117919922,
				-3.1354942321777344,
				-41.120086669921875
			],
			"type":"VEC3"
		},
		{
			"bufferView":9,
			"componentType":5126,
			"count":419,
			"type":"VEC3"
		},
		{
			"bufferView":10,
			"componentType":5126,
			"count":419,
			"type":"VEC2"
		},
		{
			"bufferView":11,
			"componentType":5123,
			"count":708,
			"type":"SCALAR"
		},
		{
			"bufferView":12,
			"componentType":5126,
			"count":138240,
			"max":[
				11.304314613342285,
				0.0016485154628753662,
				47.397178649902344
			],
			"min":[
				-78.31694030761719,
				-2.8871638774871826,
				-59.43795394897461
			],
			"type":"VEC3"
		},
		{
			"bufferView":13,
			"componentType":5126,
			"count":138240,
			"type":"VEC3"
		},
		{
			"bufferView":14,
			"componentType":5126,
			"count":138240,
			"type":"VEC2"
		},
		{
			"bufferView":15,
			"componentType":5125,
			"count":207360,
			"type":"SCALAR"
		},
		{
			"bufferView":16,
			"componentType":5126,
			"count":340,
			"max":[
				30.113506317138672,
				1.0279464721679688,
				58.88421630859375
			],
			"min":[
				-95.81890869140625,
				-9.105751037597656,
				-76.50970458984375
			],
			"type":"VEC3"
		},
		{
			"bufferView":17,
			"componentType":5126,
			"count":340,
			"type":"VEC3"
		},
		{
			"bufferView":18,
			"componentType":5126,
			"count":340,
			"type":"VEC2"
		},
		{
			"bufferView":19,
			"componentType":5123,
			"count":1344,
			"type":"SCALAR"
		},
		{
			"bufferView":20,
			"componentType":5126,
			"count":4748,
			"max":[
				-26.82889175415039,
				28.93564224243164,
				14.847212791442871
			],
			"min":[
				-37.3205680847168,
				-0.9559377431869507,
				6.5200300216674805
			],
			"type":"VEC3"
		},
		{
			"bufferView":21,
			"componentType":5126,
			"count":4748,
			"type":"VEC3"
		},
		{
			"bufferView":22,
			"componentType":5126,
			"count":4748,
			"type":"VEC2"
		},
		{
			"bufferView":23,
			"componentType":5123,
			"count":18816,
			"type":"SCALAR"
		},
		{
			"bufferView":24,
			"componentType":5126,
			"count":104,
			"max":[
				2.763310432434082,
				29.425975799560547,
				-22.218263626098633
			],
			"min":[
				-27.914419174194336,
				2.865980386734009,
				-44.47274398803711
			],
			"type":"VEC3"
		},
		{
			"bufferView":25,
			"componentType":5126,
			"count":104,
			"type":"VEC3"
		},
		{
			"bufferView":26,
			"componentType":5126,
			"count":104,
			"type":"VEC2"
		},
		{
			"bufferView":27,
			"componentType":5123,
			"count":108,
			"type":"SCALAR"
		},
		{
			"bufferView":28,
			"componentType":5126,
			"count":6564,
			"max":[
				-42.702484130859375,
				-0.9662302732467651,
				-10.929929733276367
			],
			"min":[
				-44.89076614379883,
				-2.7159767150878906,
				-16.06766128540039
			],
			"type":"VEC3"
		},
		{
			"bufferView":29,
			"componentType":5126,
			"count":6564,
			"type":"VEC3"
		},
		{
			"bufferView":30,
			"componentType":5126,
			"count":6564,
			"type":"VEC2"
		},
		{
			"bufferView":31,
			"componentType":5123,
			"count":34776,
			"type":"SCALAR"
		},
		{
			"bufferView":32,
			"componentType":5126,
			"count":262144,
			"max":[
				500.00006103515625,
				-6.009200572967529,
				500.00006103515625
			],
			"min":[
				-500.00006103515625,
				-8.224604606628418,
				-500.00006103515625
			],
			"type":"VEC3"
		},
		{
			"bufferView":33,
			"componentType":5126,
			"count":262144,
			"type":"VEC3"
		},
		{
			"bufferView":34,
			"componentType":5126,
			"count":262144,
			"type":"VEC2"
		},
		{
			"bufferView":35,
			"componentType":5125,
			"count":393216,
			"type":"SCALAR"
		}
	],
	"bufferViews":[
		{
			"buffer":0,
			"byteLength":1728,
			"byteOffset":0,
			"target":34962
		},
		{
			"buffer":0,
			"byteLength":1728,
			"byteOffset":1728,
			"target":34962
		},
		{
			"buffer":0,
			"byteLength":1152,
			"byteOffset":3456,
			"target":34962
		},
		{
			"buffer":0,
			"byteLength":432,
			"byteOffset":4608,
			"target":34963
		},
		{
			"buffer":0,
			"byteLength":1440,
			"byteOffset":5040,
			"target":34962
		},
		{
			"buffer":0,
			"byteLength":1440,
			"byteOffset":6480,
			"target":34962
		},
		{
			"buffer":0,
			"byteLength":960,
			"byteOffset":7920,
			"target":34962
		},
		{
			"buffer":0,
			"byteLength":360,
			"byteOffset":8880,
			"target":34963
		},
		{
			"buffer":0,
			"byteLength":5028,
			"byteOffset":9240,
			"target":34962
		},
		{
			"buffer":0,
			"byteLength":5028,
			"byteOffset":14268,
			"target":34962
		},
		{
			"buffer":0,
			"byteLength":3352,
			"byteOffset":19296,
			"target":34962
		},
		{
			"buffer":0,
			"byteLength":1416,
			"byteOffset":22648,
			"target":34963
		},
		{
			"buffer":0,
			"byteLength":1658880,
			"byteOffset":24064,
			"target":34962
		},
		{
			"buffer":0,
			"byteLength":1658880,
			"byteOffset":1682944,
			"target":34962
		},
		{
			"buffer":0,
			"byteLength":1105920,
			"byteOffset":3341824,
			"target":34962
		},
		{
			"buffer":0,
			"byteLength":829440,
			"byteOffset":4447744,
			"target":34963
		},
		{
			"buffer":0,
			"byteLength":4080,
			"byteOffset":5277184,
			"target":34962
		},
		{
			"buffer":0,
			"byteLength":4080,
			"byteOffset":5281264,
			"target":34962
		},
		{
			"buffer":0,
			"byteLength":2720,
			"byteOffset":5285344,
			"target":34962
		},
		{
			"buffer":0,
			"byteLength":2688,
			"byteOffset":5288064,
			"target":34963
		},
		{
			"buffer":0,
			"byteLength":56976,
			"byteOffset":5290752,
			"target":34962
		},
		{
			"buffer":0,
			"byteLength":56976,
			"byteOffset":5347728,
			"target":34962
		},
		{
			"buffer":0,
			"byteLength":37984,
			"byteOffset":5404704,
			"target":34962
		},
		{
			"buffer":0,
			"byteLength":37632,
			"byteOffset":5442688,
			"target":34963
		},
		{
			"buffer":0,
			"byteLength":1248,
			"byteOffset":5480320,
			"target":34962
		},
		{
			"buffer":0,
			"byteLength":1248,
			"byteOffset":5481568,
			"target":34962
		},
		{
			"buffer":0,
			"byteLength":832,
			"byteOffset":5482816,
			"target":34962
		},
		{
			"buffer":0,
			"byteLength":216,
			"byteOffset":5483648,
			"target":34963
		},
		{
			"buffer":0,
			"byteLength":78768,
			"byteOffset":5483864,
			"target":34962
		},
		{
			"buffer":0,
			"byteLength":78768,
			"byteOffset":5562632,
			"target":34962
		},
		{
			"buffer":0,
			"byteLength":52512,
			"byteOffset":5641400,
			"target":34962
		},
		{
			"buffer":0,
			"byteLength":69552,
			"byteOffset":5693912,
			"target":34963
		},
		{
			"buffer":0,
			"byteLength":3145728,
			"byteOffset":5763464,
			"target":34962
		},
		{
			"buffer":0,
			"byteLength":3145728,
			"byteOffset":8909192,
			"target":34962
		},
		{
			"buffer":0,
			"byteLength":2097152,
			"byteOffset":12054920,
			"target":34962
		},
		{
			"buffer":0,
			"byteLength":1572864,
			"byteOffset":14152072,
			"target":34963
		}
	],
	"samplers":[
		{
			"magFilter":9729,
			"minFilter":9987
		}
	],
	"buffers":[
		{
			"byteLength":15724936,
			"uri":"testScene.bin"
		}
	]
}
