{
	"asset":{
		"generator":"Khronos glTF Blender I/O v4.1.63",
		"version":"2.0"
	},
	"scene":0,
	"scenes":[
		{
			"name":"Scene",
			"nodes":[
				0,
				1,
				2,
				3,
				4,
				5,
				6
			]
		}
	],
	"nodes":[
		{
			"mesh":0,
			"name":"Cube.002"
		},
		{
			"mesh":1,
			"name":"Cube.003"
		},
		{
			"mesh":2,
			"name":"Sphere.001"
		},
		{
			"mesh":3,
			"name":"Cylinder"
		},
		{
			"mesh":4,
			"name":"Cube.001"
		},
		{
			"mesh":5,
			"name":"Sphere"
		},
		{
			"mesh":6,
			"name":"Plane"
		}
	],
	"materials":[
		{
			"doubleSided":true,
			"name":"Material.001",
			"pbrMetallicRoughness":{
				"baseColorTexture":{
					"index":0
				},
				"metallicFactor":0,
				"roughnessFactor":0.5
			}
		},
		{
			"doubleSided":true,
			"name":"Material.007",
			"pbrMetallicRoughness":{
				"baseColorTexture":{
					"index":1
				},
				"metallicFactor":0,
				"roughnessFactor":0.5
			}
		},
		{
			"doubleSided":true,
			"name":"Material.005",
			"pbrMetallicRoughness":{
				"baseColorTexture":{
					"index":2
				},
				"metallicFactor":0,
				"roughnessFactor":0.5
			}
		},
		{
			"doubleSided":true,
			"name":"Material.003",
			"pbrMetallicRoughness":{
				"baseColorTexture":{
					"index":3
				},
				"metallicFactor":0,
				"roughnessFactor":0.5
			}
		},
		{
			"doubleSided":true,
			"name":"Material.004",
			"pbrMetallicRoughness":{
				"baseColorTexture":{
					"index":4
				},
				"metallicFactor":0,
				"roughnessFactor":0.5
			}
		},
		{
			"doubleSided":true,
			"name":"Material.002",
			"pbrMetallicRoughness":{
				"baseColorTexture":{
					"index":5
				},
				"metallicFactor":0,
				"roughnessFactor":0.5
			}
		},
		{
			"doubleSided":true,
			"name":"Material.009",
			"pbrMetallicRoughness":{
				"baseColorTexture":{
					"index":6
				},
				"metallicFactor":0,
				"roughnessFactor":0.5
			}
		}
	],
	"meshes":[
		{
			"name":"Cube.001",
			"primitives":[
				{
					"attributes":{
						"POSITION":0,
						"NORMAL":1,
						"TEXCOORD_0":2
					},
					"indices":3,
					"material":0
				}
			]
		},
		{
			"name":"Cube.002",
			"primitives":[
				{
					"attributes":{
						"POSITION":4,
						"NORMAL":5,
						"TEXCOORD_0":6
					},
					"indices":7,
					"material":1
				}
			]
		},
		{
			"name":"Sphere.001",
			"primitives":[
				{
					"attributes":{
						"POSITION":8,
						"NORMAL":9,
						"TEXCOORD_0":10
					},
					"indices":11,
					"material":2
				}
			]
		},
		{
			"name":"Cylinder",
			"primitives":[
				{
					"attributes":{
						"POSITION":12,
						"NORMAL":13,
						"TEXCOORD_0":14
					},
					"indices":15,
					"material":3
				}
			]
		},
		{
			"name":"Cube",
			"primitives":[
				{
					"attributes":{
						"POSITION":16,
						"NORMAL":17,
						"TEXCOORD_0":18
					},
					"indices":19,
					"material":4
				}
			]
		},
		{
			"name":"Sphere",
			"primitives":[
				{
					"attributes":{
						"POSITION":20,
						"NORMAL":21,
						"TEXCOORD_0":22
					},
					"indices":23,
					"material":5
				}
			]
		},
		{
			"name":"Plane.001",
			"primitives":[
				{
					"attributes":{
						"POSITION":24,
						"NORMAL":25,
						"TEXCOORD_0":26
					},
					"indices":27,
					"material":6
				}
			]
		}
	],
	"textures":[
		{
			"sampler":0,
			"source":0
		},
		{
			"sampler":0,
			"source":1
		},
		{
			"sampler":0,
			"source":2
		},
		{
			"sampler":0,
			"source":3
		},
		{
			"sampler":0,
			"source":4
		},
		{
			"sampler":0,
			"source":5
		},
		{
			"sampler":0,
			"source":6
		}
	],
	"images":[
		{
			"mimeType":"image/png",
			"name":"Saguaro_BaseColor",
			"uri":"Saguaro_BaseColor.png"
		},
		{
			"mimeType":"image/png",
			"name":"Pool_Statue_BaseColor",
			"uri":"Pool_Statue_BaseColor.png"
		},
		{
			"mimeType":"image/png",
			"name":"Pool_BaseColor",
			"uri":"Pool_BaseColor.png"
		},
		{
			"mimeType":"image/png",
			"name":"Pillars_BaseColor",
			"uri":"Pillars_BaseColor.png"
		},
		{
			"mimeType":"image/png",
			"name":"Pillar_Stone_BaseColor",
			"uri":"Pillar_Stone_BaseColor.png"
		},
		{
			"mimeType":"image/png",
			"name":"Rock_BaseColor",
			"uri":"Rock_BaseColor.png"
		},
		{
			"mimeType":"image/png",
			"name":"Floor_Plane_BaseColor",
			"uri":"Floor_Plane_BaseColor.png"
		}
	],
	"accessors":[
		{
			"bufferView":0,
			"componentType":5126,
			"count":687,
			"max":[
				-26.82889175415039,
				31.684553146362305,
				14.847212791442871
			],
			"min":[
				-37.3205680847168,
				1.7929723262786865,
				6.5200300216674805
			],
			"type":"VEC3"
		},
		{
			"bufferView":1,
			"componentType":5126,
			"count":687,
			"type":"VEC3"
		},
		{
			"bufferView":2,
			"componentType":5126,
			"count":687,
			"type":"VEC2"
		},
		{
			"bufferView":3,
			"componentType":5123,
			"count":1176,
			"type":"SCALAR"
		},
		{
			"bufferView":4,
			"componentType":5126,
			"count":34,
			"max":[
				-21.029186248779297,
				14.718307495117188,
				-22.218263626098633
			],
			"min":[
				-27.914419174194336,
				-0.6047472953796387,
				-30.24233627319336
			],
			"type":"VEC3"
		},
		{
			"bufferView":5,
			"componentType":5126,
			"count":34,
			"type":"VEC3"
		},
		{
			"bufferView":6,
			"componentType":5126,
			"count":34,
			"type":"VEC2"
		},
		{
			"bufferView":7,
			"componentType":5123,
			"count":36,
			"type":"SCALAR"
		},
		{
			"bufferView":8,
			"componentType":5126,
			"count":843,
			"max":[
				-5.057519912719727,
				6.876955509185791,
				-6.407556533813477
			],
			"min":[
				-45.16996765136719,
				-0.0213947594165802,
				-44.65837860107422
			],
			"type":"VEC3"
		},
		{
			"bufferView":9,
			"componentType":5126,
			"count":843,
			"type":"VEC3"
		},
		{
			"bufferView":10,
			"componentType":5126,
			"count":843,
			"type":"VEC2"
		},
		{
			"bufferView":11,
			"componentType":5123,
			"count":2016,
			"type":"SCALAR"
		},
		{
			"bufferView":12,
			"componentType":5126,
			"count":144,
			"max":[
				-32.53310775756836,
				32.66215133666992,
				-32.69435501098633
			],
			"min":[
				-56.799339294433594,
				-5.664850234985352,
				-57.42865753173828
			],
			"type":"VEC3"
		},
		{
			"bufferView":13,
			"componentType":5126,
			"count":144,
			"type":"VEC3"
		},
		{
			"bufferView":14,
			"componentType":5126,
			"count":144,
			"type":"VEC2"
		},
		{
			"bufferView":15,
			"componentType":5123,
			"count":216,
			"type":"SCALAR"
		},
		{
			"bufferView":16,
			"componentType":5126,
			"count":120,
			"max":[
				-27.448591232299805,
				35.772708892822266,
				-27.794157028198242
			],
			"min":[
				-61.133331298828125,
				28.21120262145996,
				-62.958351135253906
			],
			"type":"VEC3"
		},
		{
			"bufferView":17,
			"componentType":5126,
			"count":120,
			"type":"VEC3"
		},
		{
			"bufferView":18,
			"componentType":5126,
			"count":120,
			"type":"VEC2"
		},
		{
			"bufferView":19,
			"componentType":5123,
			"count":180,
			"type":"SCALAR"
		},
		{
			"bufferView":20,
			"componentType":5126,
			"count":419,
			"max":[
				-34.86813735961914,
				28.070613861083984,
				31.4079647064209
			],
			"min":[
				-106.64202117919922,
				0.06580066680908203,
				-41.120086669921875
			],
			"type":"VEC3"
		},
		{
			"bufferView":21,
			"componentType":5126,
			"count":419,
			"type":"VEC3"
		},
		{
			"bufferView":22,
			"componentType":5126,
			"count":419,
			"type":"VEC2"
		},
		{
			"bufferView":23,
			"componentType":5123,
			"count":708,
			"type":"SCALAR"
		},
		{
			"bufferView":24,
			"componentType":5126,
			"count":4,
			"max":[
				47.975852966308594,
				0,
				39.18299102783203
			],
			"min":[
				-47.975852966308594,
				0,
				-39.18299102783203
			],
			"type":"VEC3"
		},
		{
			"bufferView":25,
			"componentType":5126,
			"count":4,
			"type":"VEC3"
		},
		{
			"bufferView":26,
			"componentType":5126,
			"count":4,
			"type":"VEC2"
		},
		{
			"bufferView":27,
			"componentType":5123,
			"count":6,
			"type":"SCALAR"
		}
	],
	"bufferViews":[
		{
			"buffer":0,
			"byteLength":8244,
			"byteOffset":0,
			"target":34962
		},
		{
			"buffer":0,
			"byteLength":8244,
			"byteOffset":8244,
			"target":34962
		},
		{
			"buffer":0,
			"byteLength":5496,
			"byteOffset":16488,
			"target":34962
		},
		{
			"buffer":0,
			"byteLength":2352,
			"byteOffset":21984,
			"target":34963
		},
		{
			"buffer":0,
			"byteLength":408,
			"byteOffset":24336,
			"target":34962
		},
		{
			"buffer":0,
			"byteLength":408,
			"byteOffset":24744,
			"target":34962
		},
		{
			"buffer":0,
			"byteLength":272,
			"byteOffset":25152,
			"target":34962
		},
		{
			"buffer":0,
			"byteLength":72,
			"byteOffset":25424,
			"target":34963
		},
		{
			"buffer":0,
			"byteLength":10116,
			"byteOffset":25496,
			"target":34962
		},
		{
			"buffer":0,
			"byteLength":10116,
			"byteOffset":35612,
			"target":34962
		},
		{
			"buffer":0,
			"byteLength":6744,
			"byteOffset":45728,
			"target":34962
		},
		{
			"buffer":0,
			"byteLength":4032,
			"byteOffset":52472,
			"target":34963
		},
		{
			"buffer":0,
			"byteLength":1728,
			"byteOffset":56504,
			"target":34962
		},
		{
			"buffer":0,
			"byteLength":1728,
			"byteOffset":58232,
			"target":34962
		},
		{
			"buffer":0,
			"byteLength":1152,
			"byteOffset":59960,
			"target":34962
		},
		{
			"buffer":0,
			"byteLength":432,
			"byteOffset":61112,
			"target":34963
		},
		{
			"buffer":0,
			"byteLength":1440,
			"byteOffset":61544,
			"target":34962
		},
		{
			"buffer":0,
			"byteLength":1440,
			"byteOffset":62984,
			"target":34962
		},
		{
			"buffer":0,
			"byteLength":960,
			"byteOffset":64424,
			"target":34962
		},
		{
			"buffer":0,
			"byteLength":360,
			"byteOffset":65384,
			"target":34963
		},
		{
			"buffer":0,
			"byteLength":5028,
			"byteOffset":65744,
			"target":34962
		},
		{
			"buffer":0,
			"byteLength":5028,
			"byteOffset":70772,
			"target":34962
		},
		{
			"buffer":0,
			"byteLength":3352,
			"byteOffset":75800,
			"target":34962
		},
		{
			"buffer":0,
			"byteLength":1416,
			"byteOffset":79152,
			"target":34963
		},
		{
			"buffer":0,
			"byteLength":48,
			"byteOffset":80568,
			"target":34962
		},
		{
			"buffer":0,
			"byteLength":48,
			"byteOffset":80616,
			"target":34962
		},
		{
			"buffer":0,
			"byteLength":32,
			"byteOffset":80664,
			"target":34962
		},
		{
			"buffer":0,
			"byteLength":12,
			"byteOffset":80696,
			"target":34963
		}
	],
	"samplers":[
		{
			"magFilter":9729,
			"minFilter":9987
		}
	],
	"buffers":[
		{
			"byteLength":80708,
			"uri":"Test_Scene.bin"
		}
	]
}
