{
	"asset":{
		"generator":"Khronos glTF Blender I/O v4.1.63",
		"version":"2.0"
	},
	"extensionsUsed":[
		"KHR_materials_specular"
	],
	"scene":0,
	"scenes":[
		{
			"name":"Scene",
			"nodes":[
				0
			]
		}
	],
	"nodes":[
		{
			"mesh":0,
			"name":"Plane"
		}
	],
	"materials":[
		{
			"doubleSided":true,
			"extensions":{
				"KHR_materials_specular":{
					"specularTexture":{
						"index":0
					}
				}
			},
			"name":"Material.001",
			"normalTexture":{
				"index":1
			},
			"pbrMetallicRoughness":{
				"baseColorTexture":{
					"index":2
				},
				"metallicFactor":0,
				"roughnessFactor":0
			}
		}
	],
	"meshes":[
		{
			"name":"Plane.001",
			"primitives":[
				{
					"attributes":{
						"POSITION":0,
						"NORMAL":1,
						"TEXCOORD_0":2
					},
					"indices":3,
					"material":0
				}
			]
		}
	],
	"textures":[
		{
			"sampler":0,
			"source":0
		},
		{
			"sampler":0,
			"source":1
		},
		{
			"sampler":0,
			"source":2
		}
	],
	"images":[
		{
			"mimeType":"image/png",
			"name":"baked_specular",
			"uri":"baked_specular.png"
		},
		{
			"mimeType":"image/png",
			"name":"baked_normal",
			"uri":"baked_normal.png"
		},
		{
			"mimeType":"image/png",
			"name":"baked_diffuse",
			"uri":"baked_diffuse.png"
		}
	],
	"accessors":[
		{
			"bufferView":0,
			"componentType":5126,
			"count":36855,
			"max":[
				1.5260818004608154,
				3.546861171722412,
				1.7524343729019165
			],
			"min":[
				-1.5293426513671875,
				0.06591260433197021,
				-0.90336012840271
			],
			"type":"VEC3"
		},
		{
			"bufferView":1,
			"componentType":5126,
			"count":36855,
			"type":"VEC3"
		},
		{
			"bufferView":2,
			"componentType":5126,
			"count":36855,
			"type":"VEC2"
		},
		{
			"bufferView":3,
			"componentType":5123,
			"count":152064,
			"type":"SCALAR"
		}
	],
	"bufferViews":[
		{
			"buffer":0,
			"byteLength":442260,
			"byteOffset":0,
			"target":34962
		},
		{
			"buffer":0,
			"byteLength":442260,
			"byteOffset":442260,
			"target":34962
		},
		{
			"buffer":0,
			"byteLength":294840,
			"byteOffset":884520,
			"target":34962
		},
		{
			"buffer":0,
			"byteLength":304128,
			"byteOffset":1179360,
			"target":34963
		}
	],
	"samplers":[
		{
			"magFilter":9729,
			"minFilter":9987
		}
	],
	"buffers":[
		{
			"byteLength":1483488,
			"uri":"gunther.bin"
		}
	]
}
