{
	"asset":{
		"generator":"Khronos glTF Blender I/O v4.1.63",
		"version":"2.0"
	},
	"scene":0,
	"scenes":[
		{
			"name":"Scene",
			"nodes":[
				0
			]
		}
	],
	"nodes":[
		{
			"mesh":0,
			"name":"Sphere"
		}
	],
	"meshes":[
		{
			"name":"Sphere",
			"primitives":[
				{
					"attributes":{
						"POSITION":0,
						"NORMAL":1
					},
					"indices":2
				}
			]
		}
	],
	"accessors":[
		{
			"bufferView":0,
			"componentType":5126,
			"count":419,
			"max":[
				-34.86813735961914,
				28.070613861083984,
				31.4079647064209
			],
			"min":[
				-106.64202117919922,
				0.06580066680908203,
				-41.120086669921875
			],
			"type":"VEC3"
		},
		{
			"bufferView":1,
			"componentType":5126,
			"count":419,
			"type":"VEC3"
		},
		{
			"bufferView":2,
			"componentType":5123,
			"count":708,
			"type":"SCALAR"
		}
	],
	"bufferViews":[
		{
			"buffer":0,
			"byteLength":5028,
			"byteOffset":0,
			"target":34962
		},
		{
			"buffer":0,
			"byteLength":5028,
			"byteOffset":5028,
			"target":34962
		},
		{
			"buffer":0,
			"byteLength":1416,
			"byteOffset":10056,
			"target":34963
		}
	],
	"buffers":[
		{
			"byteLength":11472,
			"uri":"rock_half.bin"
		}
	]
}
