{
	"asset":{
		"generator":"Khronos glTF Blender I/O v4.1.63",
		"version":"2.0"
	},
	"extensionsUsed":[
		"KHR_texture_transform",
		"KHR_materials_specular",
		"KHR_materials_ior"
	],
	"extensionsRequired":[
		"KHR_texture_transform"
	],
	"scene":0,
	"scenes":[
		{
			"name":"Scene",
			"nodes":[
				0
			]
		}
	],
	"nodes":[
		{
			"mesh":0,
			"name":"ground"
		}
	],
	"materials":[
		{
			"doubleSided":true,
			"emissiveFactor":[
				0.20000004768371582,
				0.20000004768371582,
				0.20000004768371582
			],
			"emissiveTexture":{
				"extensions":{
					"KHR_texture_transform":{
						"offset":[
							0,
							-2.399998903274536
						],
						"scale":[
							1.6000001430511475,
							3.399998903274536
						]
					}
				},
				"index":0
			},
			"extensions":{
				"KHR_materials_specular":{
					"specularFactor":0
				},
				"KHR_materials_ior":{
					"ior":1
				}
			},
			"name":"Material.001",
			"normalTexture":{
				"extensions":{
					"KHR_texture_transform":{
						"offset":[
							0,
							-2.399998903274536
						],
						"scale":[
							1.6000001430511475,
							3.399998903274536
						]
					}
				},
				"index":1
			},
			"pbrMetallicRoughness":{
				"baseColorTexture":{
					"extensions":{
						"KHR_texture_transform":{
							"offset":[
								0,
								-2.399998903274536
							],
							"scale":[
								1.6000001430511475,
								3.399998903274536
							]
						}
					},
					"index":2
				},
				"metallicRoughnessTexture":{
					"extensions":{
						"KHR_texture_transform":{
							"offset":[
								0,
								-2.399998903274536
							],
							"scale":[
								1.6000001430511475,
								3.399998903274536
							]
						}
					},
					"index":3
				}
			}
		}
	],
	"meshes":[
		{
			"name":"Plane",
			"primitives":[
				{
					"attributes":{
						"POSITION":0,
						"NORMAL":1,
						"TEXCOORD_0":2
					},
					"indices":3,
					"material":0
				}
			]
		}
	],
	"textures":[
		{
			"sampler":0,
			"source":0
		},
		{
			"sampler":0,
			"source":1
		},
		{
			"sampler":0,
			"source":0
		},
		{
			"sampler":0,
			"source":2
		}
	],
	"images":[
		{
			"mimeType":"image/jpeg",
			"name":"gravel_road_diff_4k",
			"uri":"gravel_road_diff_4k.jpg"
		},
		{
			"mimeType":"image/png",
			"name":"gravel_road_disp_4k",
			"uri":"gravel_road_disp_4k.png"
		},
		{
			"mimeType":"image/png",
			"name":"specular-gravel_road_rough_4k",
			"uri":"specular-gravel_road_rough_4k.png"
		}
	],
	"accessors":[
		{
			"bufferView":0,
			"componentType":5126,
			"count":262137,
			"max":[
				274.8922424316406,
				7.180422782897949,
				277.149658203125
			],
			"min":[
				-281.0774841308594,
				0.4863739609718323,
				-278.1620178222656
			],
			"type":"VEC3"
		},
		{
			"bufferView":1,
			"componentType":5126,
			"count":262137,
			"type":"VEC3"
		},
		{
			"bufferView":2,
			"componentType":5126,
			"count":262137,
			"type":"VEC2"
		},
		{
			"bufferView":3,
			"componentType":5125,
			"count":393216,
			"type":"SCALAR"
		}
	],
	"bufferViews":[
		{
			"buffer":0,
			"byteLength":3145644,
			"byteOffset":0,
			"target":34962
		},
		{
			"buffer":0,
			"byteLength":3145644,
			"byteOffset":3145644,
			"target":34962
		},
		{
			"buffer":0,
			"byteLength":2097096,
			"byteOffset":6291288,
			"target":34962
		},
		{
			"buffer":0,
			"byteLength":1572864,
			"byteOffset":8388384,
			"target":34963
		}
	],
	"samplers":[
		{
			"magFilter":9729,
			"minFilter":9987
		}
	],
	"buffers":[
		{
			"byteLength":9961248,
			"uri":"scene_models_no_pyramid.bin"
		}
	]
}
