# V 0.13

mtllib decl_000_u.mtl

o decl_000_u_high_1

usemtl decl_000_u_0

v 0.06152343 -0.16064450 0.30957030
v 0.05859375 -0.15332030 0.32275390
v 0.04101563 -0.15234370 0.31542970
v 0.04687500 -0.16064450 0.29736330
v 0.07812500 -0.16259770 0.29248050
v 0.01806641 -0.15185550 0.30566410
v 0.06933594 -0.16113280 0.27587890
v 0.10009770 -0.15673830 0.27978520
v 0.03369141 -0.15820310 0.28564450
v 0.09423828 -0.15332030 0.26367190
v 0.12011720 -0.14257810 0.28271480
v 0.11816410 -0.13525390 0.26855470
v 0.05615234 -0.15332030 0.26416020
v 0.08593750 -0.14453130 0.25097660
v 0.11279300 -0.12597660 0.25439450
v 0.10449220 -0.11767580 0.24316410
v 0.07861328 -0.13867190 0.23925780
v 0.03955078 -0.14990230 0.25488280
v 0.03955078 -0.14453130 0.24023440
v 0.03955078 -0.14990230 0.25488280
v 0.07373047 -0.13720700 0.23046880
v 0.09863281 -0.11865230 0.23144530
v 0.10449220 -0.11767580 0.24316410
v 0.02099609 -0.15576170 0.27880860
v 0.00048828 -0.15087890 0.30273440
v 0.00048828 -0.14941410 0.25292970
v 0.00048828 -0.15429690 0.27490230
v 0.03955078 -0.14453130 0.24023440
v -0.02001953 -0.15576170 0.28222660
v -0.01708984 -0.15185550 0.30859370
v -0.03906250 -0.14990230 0.25537110
v -0.03271484 -0.15820310 0.28906250
v -0.04638672 -0.16064450 0.29931640
v -0.04003906 -0.15234370 0.31933590
v -0.05761719 -0.15332030 0.32617190
v -0.06103515 -0.16064450 0.30957030
v -0.07763672 -0.16259770 0.29003910
v -0.06884766 -0.16113280 0.27197270
v -0.05615234 -0.15332030 0.26318360
v -0.06884766 -0.16113280 0.27197270
v -0.09960938 -0.15673830 0.27880860
v -0.07861328 -0.13867190 0.23486330
v -0.03906250 -0.14990230 0.25537110
v -0.08593750 -0.14453130 0.24658200
v -0.09423828 -0.15332030 0.26074220
v -0.11962890 -0.14208980 0.27978520
v -0.11816410 -0.13525390 0.26318360
v -0.08593750 -0.14453130 0.24658200
v -0.11279300 -0.12597660 0.24853520
v -0.08593750 -0.14453130 0.24658200
v -0.10449220 -0.11767580 0.23779300
v -0.07861328 -0.13867190 0.23486330
v -0.09912110 -0.11865230 0.22607420
v -0.07373047 -0.13720700 0.22753910
v -0.03906250 -0.14453130 0.23925780
v -0.09326172 -0.11572270 0.18701170
v -0.06640625 -0.13720700 0.19775390
v -0.07373047 -0.13720700 0.22753910
v 0.00048828 -0.14453130 0.23632810
v -0.03466797 -0.14257810 0.20751950
v 0.03466797 -0.14257810 0.20800780
v 0.00000000 -0.14355470 0.20507810
v -0.03173828 -0.14453130 0.14697270
v 0.06640625 -0.13671870 0.19970700
v 0.09863281 -0.11865230 0.23144530
v 0.09277344 -0.11572270 0.19189450
v 0.03222656 -0.14453130 0.14697270
v 0.06591797 -0.13720700 0.13867190
v 0.09277344 -0.11035160 0.11718750
v 0.07812500 -0.12207030 0.07177734
v 0.05957031 -0.13232420 0.07714844
v 0.02978515 -0.13769530 0.08007813
v 0.00000000 -0.14501950 0.14794920
v 0.00000000 -0.14062500 0.07763672
v -0.02929688 -0.13769530 0.08007813
v -0.05908203 -0.13232420 0.07666016
v -0.06591797 -0.13720700 0.13818360
v -0.07763672 -0.12207030 0.07128906
v -0.09326172 -0.11572270 0.18701170
v -0.09277344 -0.11035160 0.11328120

vn -0.19531250 -0.94140630 0.27343750
vn -0.23437500 -0.87109370 0.43359380
vn -0.23046880 -0.89843750 0.37109380
vn -0.17187500 -0.98437500 0.04296875
vn 0.00781250 -1.00000000 -0.05078125
vn -0.18750000 -0.96484370 0.18359380
vn -0.01171875 -0.94531250 -0.32421880
vn 0.31250000 -0.90625000 -0.28125000
vn -0.12109380 -0.98828130 -0.10546870
vn 0.39062500 -0.77734370 -0.48828130
vn 0.58984370 -0.70703130 -0.39062500
vn 0.54296870 -0.61328130 -0.57421870
vn -0.03906250 -0.92578120 -0.37890620
vn 0.30859370 -0.71093750 -0.63281250
vn 0.47656250 -0.57421870 -0.66406250
vn 0.55468750 -0.62500000 -0.55078120
vn 0.31640630 -0.84765630 -0.42187500
vn 0.01953125 -0.94531250 -0.32421880
vn 0.09375000 -0.97656250 -0.20312500
vn 0.01953125 -0.94531250 -0.32421880
vn 0.38281250 -0.89453130 -0.22656250
vn 0.59375000 -0.76562500 -0.24609380
vn 0.55468750 -0.62500000 -0.55078120
vn -0.08203125 -0.99609380 -0.05859375
vn 0.01171875 -0.99218750 0.12890630
vn -0.00390625 -0.96484370 -0.26562500
vn -0.00390625 -1.00000000 -0.04687500
vn 0.09375000 -0.97656250 -0.20312500
vn 0.08593750 -0.99609380 -0.05078125
vn 0.19531250 -0.96484370 0.17578120
vn 0.00000000 -0.95312500 -0.30468750
vn 0.13281250 -0.98828130 -0.09375000
vn 0.17187500 -0.98437500 0.04296875
vn 0.19921870 -0.92187500 0.32812500
vn 0.19531250 -0.91015630 0.36328130
vn 0.16406250 -0.95703130 0.23828120
vn -0.01171875 -1.00000000 -0.05078125
vn 0.02343750 -0.94921880 -0.31640630
vn 0.08984375 -0.92187500 -0.37890620
vn 0.02343750 -0.94921880 -0.31640630
vn -0.32031250 -0.91406250 -0.24609380
vn -0.28515620 -0.85546880 -0.42968750
vn 0.00000000 -0.95312500 -0.30468750
vn -0.28125000 -0.72656250 -0.62890620
vn -0.39453130 -0.80468750 -0.44140630
vn -0.58203120 -0.73828120 -0.33593750
vn -0.53515630 -0.65625000 -0.53515630
vn -0.28125000 -0.72656250 -0.62890620
vn -0.45703120 -0.59375000 -0.66406250
vn -0.28125000 -0.72656250 -0.62890620
vn -0.53906250 -0.62890620 -0.55859380
vn -0.28515620 -0.85546880 -0.42968750
vn -0.57812500 -0.77343750 -0.25390630
vn -0.36328130 -0.90234380 -0.23828120
vn -0.08593750 -0.97656250 -0.19531250
vn -0.62500000 -0.77734370 -0.06640625
vn -0.36718750 -0.92968750 -0.05859375
vn -0.36328130 -0.90234380 -0.23828120
vn 0.00000000 -0.99218750 -0.12109380
vn -0.08203125 -0.99609380 -0.01953125
vn 0.08203125 -0.99609380 -0.01953125
vn 0.00000000 -1.00000000 0.00781250
vn -0.11718750 -0.99218750 -0.03125000
vn 0.37500000 -0.92578120 -0.05859375
vn 0.59375000 -0.76562500 -0.24609380
vn 0.62890620 -0.77343750 -0.06640625
vn 0.11718750 -0.99218750 -0.03125000
vn 0.48828130 -0.87109370 -0.05468750
vn 0.68359370 -0.72656250 -0.04687500
vn 0.57031250 -0.81640630 -0.07812500
vn 0.27343750 -0.95703130 -0.10937500
vn 0.09375000 -0.99218750 -0.08984375
vn 0.00000000 -1.00000000 -0.04687500
vn 0.00000000 -1.00000000 -0.05859375
vn -0.09375000 -0.99218750 -0.08593750
vn -0.27343750 -0.95703130 -0.10937500
vn -0.48437500 -0.87500000 -0.05468750
vn -0.56640620 -0.82031250 -0.08203125
vn -0.62500000 -0.77734370 -0.06640625
vn -0.67968750 -0.73437500 -0.05078125

vt 0.69314570 0.8775024
vt 0.69262700 0.92884827
vt 0.62539670 0.90081787
vt 0.64537050 0.8339386
vt 0.74038690 0.8193359
vt 0.55006410 0.8543854
vt 0.71543880 0.7650452
vt 0.80638120 0.7749786
vt 0.60583500 0.7883148
vt 0.79484560 0.7260132
vt 0.88237000 0.7757416
vt 0.88784790 0.7310943999999999
vt 0.68118280 0.7166901
vt 0.78250120 0.6759337999999999
vt 0.88871770 0.6781158
vt 0.87986760 0.6276245
vt 0.76838680 0.6286621
vt 0.63291930 0.6788177
vt 0.63534540 0.6257477
vt 0.63291930 0.6788177
vt 0.75367740 0.5957030999999999
vt 0.85993960 0.5889587000000001
vt 0.87986760 0.6276245
vt 0.56854250 0.7611847
vt 0.49992370 0.8361511
vt 0.50480650 0.6672821
vt 0.50619510 0.7425231999999999
vt 0.63534540 0.6257477
vt 0.44055180 0.7634277
vt 0.45077510 0.8510437
vt 0.37463380 0.6757202
vt 0.40087890 0.7865906
vt 0.36071780 0.8226929000000001
vt 0.38203430 0.8897705
vt 0.32389830 0.91578674
vt 0.31611630 0.8578491
vt 0.26594540 0.7957001
vt 0.28707890 0.7397766
vt 0.32360840 0.703598
vt 0.28707890 0.7397766
vt 0.19647220 0.7633972
vt 0.23208620 0.6137238
vt 0.37463380 0.6757202
vt 0.21832280 0.6559600999999999
vt 0.20558170 0.7077484
vt 0.12065120 0.7670288000000001
vt 0.11244200 0.7135468
vt 0.21832280 0.6559600999999999
vt 0.11077880 0.660614
vt 0.21832280 0.6559600999999999
vt 0.11718750 0.6133576000000001
vt 0.23208620 0.6137238
vt 0.13645930 0.5761566
vt 0.24629210 0.5868987999999999
vt 0.36947630 0.6222229
vt 0.15553280 0.44725040000000005
vt 0.27130130 0.48814389999999996
vt 0.24629210 0.5868987999999999
vt 0.50318910 0.6109772
vt 0.38378910 0.5200806
vt 0.61950680 0.5208283
vt 0.50233460 0.5109558000000001
vt 0.39596560 0.3209381
vt 0.72875970 0.4911194
vt 0.85993960 0.5889587000000001
vt 0.84298700 0.45941160000000003
vt 0.60810850 0.3199158
vt 0.72102360 0.29069520000000004
vt 0.84152220 0.21176150000000005
vt 0.77113340 0.06651300000000004
vt 0.70150760 0.08773799999999998
vt 0.60150140 0.10012810000000005
vt 0.50225830 0.32449340000000004
vt 0.50225830 0.09391780000000005
vt 0.40357970 0.10110470000000005
vt 0.30395510 0.08892820000000001
vt 0.28117370 0.29194640000000005
vt 0.23435970 0.06707759999999996
vt 0.15553280 0.44725040000000005
vt 0.16119390 0.2023315

f 1/1/1 2/2/2 3/3/3 
f 3/3/3 4/4/4 1/1/1 
f 5/5/5 1/1/1 4/4/4 
f 4/4/4 3/3/3 6/6/6 
f 4/4/4 7/7/7 5/5/5 
f 8/8/8 5/5/5 7/7/7 
f 6/6/6 9/9/9 4/4/4 
f 7/7/7 10/10/10 8/8/8 
f 11/11/11 8/8/8 10/10/10 
f 10/10/10 12/12/12 11/11/11 
f 13/13/13 7/7/7 4/4/4 
f 4/4/4 9/9/9 13/13/13 
f 14/14/14 10/10/10 7/7/7 
f 12/12/12 10/10/10 14/14/14 
f 7/7/7 13/13/13 14/14/14 
f 14/14/14 15/15/15 12/12/12 
f 16/16/16 15/15/15 14/14/14 
f 14/14/14 17/17/17 16/16/16 
f 17/17/17 14/14/14 13/13/13 
f 13/13/13 18/18/18 17/17/17 
f 17/17/17 18/18/18 19/19/19 
f 20/20/20 13/13/13 9/9/9 
f 19/19/19 21/21/21 17/17/17 
f 22/22/22 23/23/23 17/17/17 
f 17/17/17 21/21/21 22/22/22 
f 9/9/9 24/24/24 20/20/20 
f 9/9/9 6/6/6 24/24/24 
f 24/24/24 6/6/6 25/25/25 
f 26/26/26 20/20/20 24/24/24 
f 25/25/25 27/27/27 24/24/24 
f 24/24/24 27/27/27 26/26/26 
f 28/28/28 20/20/20 26/26/26 
f 29/29/29 27/27/27 25/25/25 
f 26/26/26 27/27/27 29/29/29 
f 25/25/25 30/30/30 29/29/29 
f 29/29/29 31/31/31 26/26/26 
f 32/32/32 29/29/29 30/30/30 
f 31/31/31 29/29/29 32/32/32 
f 33/33/33 32/32/32 30/30/30 
f 30/30/30 34/34/34 33/33/33 
f 34/34/34 35/35/35 36/36/36 
f 36/36/36 33/33/33 34/34/34 
f 33/33/33 36/36/36 37/37/37 
f 37/37/37 38/38/38 33/33/33 
f 39/39/39 32/32/32 33/33/33 
f 32/32/32 39/39/39 31/31/31 
f 33/33/33 40/40/40 39/39/39 
f 40/40/40 37/37/37 41/41/41 
f 42/42/42 43/43/43 39/39/39 
f 39/39/39 44/44/44 42/42/42 
f 44/44/44 39/39/39 40/40/40 
f 40/40/40 45/45/45 44/44/44 
f 41/41/41 45/45/45 40/40/40 
f 45/45/45 41/41/41 46/46/46 
f 46/46/46 47/47/47 45/45/45 
f 48/48/48 45/45/45 47/47/47 
f 47/47/47 49/49/49 48/48/48 
f 50/50/50 49/49/49 51/51/51 
f 51/51/51 42/42/42 50/50/50 
f 52/52/52 51/51/51 53/53/53 
f 53/53/53 54/54/54 52/52/52 
f 52/52/52 54/54/54 55/55/55 
f 55/55/55 31/31/31 52/52/52 
f 26/26/26 31/31/31 55/55/55 
f 53/53/53 56/56/56 57/57/57 
f 57/57/57 58/58/58 53/53/53 
f 55/55/55 58/58/58 57/57/57 
f 55/55/55 59/59/59 26/26/26 
f 26/26/26 59/59/59 28/28/28 
f 57/57/57 60/60/60 55/55/55 
f 59/59/59 55/55/55 60/60/60 
f 61/61/61 28/28/28 59/59/59 
f 60/60/60 62/62/62 59/59/59 
f 59/59/59 62/62/62 61/61/61 
f 63/63/63 60/60/60 57/57/57 
f 62/62/62 60/60/60 63/63/63 
f 28/28/28 61/61/61 64/64/64 
f 64/64/64 21/21/21 28/28/28 
f 65/65/65 21/21/21 64/64/64 
f 64/64/64 66/66/66 65/65/65 
f 67/67/67 61/61/61 62/62/62 
f 64/64/64 61/61/61 67/67/67 
f 66/66/66 64/64/64 68/68/68 
f 67/67/67 68/68/68 64/64/64 
f 68/68/68 69/69/69 66/66/66 
f 70/70/70 69/69/69 68/68/68 
f 68/68/68 71/71/71 70/70/70 
f 71/71/71 68/68/68 67/67/67 
f 67/67/67 72/72/72 71/71/71 
f 72/72/72 67/67/67 73/73/73 
f 62/62/62 73/73/73 67/67/67 
f 73/73/73 74/74/74 72/72/72 
f 63/63/63 73/73/73 62/62/62 
f 75/75/75 74/74/74 73/73/73 
f 73/73/73 63/63/63 75/75/75 
f 76/76/76 75/75/75 63/63/63 
f 63/63/63 77/77/77 76/76/76 
f 57/57/57 77/77/77 63/63/63 
f 78/78/78 76/76/76 77/77/77 
f 77/77/77 57/57/57 79/79/79 
f 77/77/77 80/80/80 78/78/78 
f 79/79/79 80/80/80 77/77/77 

mtllib decl_000_u.mtl

o decl_000_u_med_1

usemtl decl_000_u_1

v 0.06982422 -0.15869140 0.31445310
v 0.06201172 -0.15136720 0.32666020
v 0.03466797 -0.15429690 0.31738280
v 0.03906250 -0.15966800 0.29931640
v 0.08544922 -0.16503910 0.28906250
v 0.01367187 -0.15429690 0.31298830
v 0.07568359 -0.16113280 0.26318360
v 0.11376950 -0.14746090 0.28662110
v 0.11328120 -0.13281250 0.25732420
v 0.10351560 -0.12109380 0.23291010
v 0.01660156 -0.15722660 0.29052740
v 0.05615234 -0.14892580 0.24267580
v -0.00048828 -0.15429690 0.30957030
v 0.05126953 -0.14355470 0.18505860
v 0.10156250 -0.11474610 0.15429690
v -0.00048828 -0.14648440 0.24951170
v -0.00048828 -0.15673830 0.28759770
v -0.01757812 -0.15722660 0.29052740
v -0.01416016 -0.15429690 0.31298830
v 0.08251953 -0.12841800 0.08593750
v 0.10107420 -0.11230470 0.04882813
v -0.03955078 -0.15966800 0.29931640
v -0.03515625 -0.15429690 0.31738280
v 0.04687500 -0.14257810 0.09130859
v 0.04589844 -0.13720700 0.02392578
v 0.00000000 -0.14404300 0.01953125
v -0.06298828 -0.15136720 0.32666020
v -0.07031250 -0.15869140 0.31445310
v -0.08593750 -0.16503910 0.28906250
v 0.00000000 -0.14794920 0.08984375
v -0.07666016 -0.16113280 0.26318360
v -0.11425780 -0.14746090 0.28662110
v -0.11425780 -0.13281250 0.25732420
v -0.10302730 -0.12060550 0.23681640
v -0.05712891 -0.14892580 0.24267580
v -0.05175781 -0.14355470 0.18505860
v -0.09912110 -0.11425780 0.16699220
v 0.00000000 -0.14794920 0.18750000
v -0.08203125 -0.12841800 0.08740234
v -0.10058590 -0.11230470 0.04882813
v -0.04638672 -0.14257810 0.09130859
v -0.04541016 -0.13720700 0.02392578

vn -0.07421875 -0.94531250 0.31640630
vn -0.06250000 -0.87500000 0.47656250
vn -0.07031250 -0.94140630 0.33593750
vn -0.12109380 -0.99218750 0.03906250
vn 0.10156250 -0.99218750 -0.06250000
vn -0.08593750 -0.98437500 0.16015630
vn 0.23437500 -0.88281250 -0.40625000
vn 0.50390620 -0.79687500 -0.33593750
vn 0.48828130 -0.74218750 -0.46484380
vn 0.43750000 -0.82031250 -0.37109380
vn -0.05468750 -0.99609380 -0.05859375
vn 0.05078125 -0.96093750 -0.27734380
vn 0.00000000 -0.99218750 0.12109380
vn 0.28515620 -0.95703130 -0.04296875
vn 0.53515630 -0.84375000 -0.02343750
vn 0.00000000 -0.99218750 -0.13671870
vn 0.00000000 -0.99609380 -0.07031250
vn 0.05468750 -0.99609380 -0.05859375
vn 0.08593750 -0.98437500 0.16015630
vn 0.46484380 -0.88281250 -0.05859375
vn 0.46875000 -0.87500000 -0.10546870
vn 0.12109380 -0.99218750 0.03906250
vn 0.07031250 -0.94140630 0.33593750
vn 0.23437500 -0.96875000 -0.07031250
vn 0.29687500 -0.95312500 -0.07812500
vn 0.00000000 -0.99609380 -0.06640625
vn 0.06250000 -0.87500000 0.47656250
vn 0.07421875 -0.94531250 0.31640630
vn -0.10156250 -0.99218750 -0.06250000
vn 0.00000000 -1.00000000 -0.02734375
vn -0.23437500 -0.87500000 -0.42578120
vn -0.50390620 -0.79687500 -0.33593750
vn -0.46875000 -0.72656250 -0.50390620
vn -0.45312500 -0.79687500 -0.40625000
vn -0.06250000 -0.95703130 -0.28515620
vn -0.29687500 -0.95312500 -0.04687500
vn -0.55468750 -0.83203120 -0.02734375
vn 0.00000000 -1.00000000 0.00390625
vn -0.47656250 -0.87890620 -0.05468750
vn -0.47656250 -0.87500000 -0.09375000
vn -0.23437500 -0.96875000 -0.06640625
vn -0.29687500 -0.95312500 -0.07812500

vt 0.73968500 0.8870544
vt 0.71122740 0.93132019
vt 0.62281800 0.8923187
vt 0.64018250 0.8305664
vt 0.79513550 0.8036804
vt 0.55717470 0.8739624
vt 0.76264950 0.7178496999999999
vt 0.90390010 0.7785339
vt 0.90827940 0.669754
vt 0.88217160 0.5817719
vt 0.56890870 0.7997742
vt 0.70234680 0.6365356
vt 0.51487730 0.8632965
vt 0.68032840 0.4411163
vt 0.86546330 0.32707220000000004
vt 0.51043700 0.6585846
vt 0.51332090 0.7901001
vt 0.45846560 0.8020783
vt 0.47319030 0.8757172
vt 0.77937310 0.10609440000000003
vt 0.85375980 -0.022262999999999922
vt 0.38858030 0.8359985
vt 0.40861510 0.8969269
vt 0.65580750 0.12922670000000003
vt 0.65008540 -0.0946499999999999
vt 0.49702450 -0.10569800000000007
vt 0.32206730 0.93983459
vt 0.29174810 0.8969116
vt 0.23280330 0.8161773999999999
vt 0.50160220 0.12844849999999997
vt 0.26133730 0.7289581
vt 0.12298580 0.7962494
vt 0.11344910 0.6879425
vt 0.13789370 0.6073455999999999
vt 0.31768800 0.6445923
vt 0.33325190 0.44805910000000004
vt 0.14978030 0.3822327
vt 0.50700380 0.45346070000000005
vt 0.22332760 0.12083440000000001
vt 0.14353940 -0.008483999999999936
vt 0.34738160 0.1352386
vt 0.34446720 -0.0887150000000001

f 81/81/81 82/82/82 83/83/83 
f 83/83/83 84/84/84 81/81/81 
f 85/85/85 81/81/81 84/84/84 
f 84/84/84 83/83/83 86/86/86 
f 84/84/84 87/87/87 85/85/85 
f 88/88/88 85/85/85 87/87/87 
f 87/87/87 89/89/89 88/88/88 
f 90/90/90 89/89/89 87/87/87 
f 86/86/86 91/91/91 84/84/84 
f 92/92/92 87/87/87 84/84/84 
f 87/87/87 92/92/92 90/90/90 
f 84/84/84 91/91/91 92/92/92 
f 91/91/91 86/86/86 93/93/93 
f 90/90/90 92/92/92 94/94/94 
f 94/94/94 95/95/95 90/90/90 
f 96/96/96 92/92/92 91/91/91 
f 94/94/94 92/92/92 96/96/96 
f 93/93/93 97/97/97 91/91/91 
f 91/91/91 97/97/97 96/96/96 
f 98/98/98 97/97/97 93/93/93 
f 96/96/96 97/97/97 98/98/98 
f 93/93/93 99/99/99 98/98/98 
f 100/100/100 95/95/95 94/94/94 
f 100/100/100 101/101/101 95/95/95 
f 102/102/102 98/98/98 99/99/99 
f 99/99/99 103/103/103 102/102/102 
f 101/101/101 100/100/100 104/104/104 
f 94/94/94 104/104/104 100/100/100 
f 104/104/104 105/105/105 101/101/101 
f 106/106/106 105/105/105 104/104/104 
f 103/103/103 107/107/107 108/108/108 
f 108/108/108 102/102/102 103/103/103 
f 102/102/102 108/108/108 109/109/109 
f 104/104/104 110/110/110 106/106/106 
f 109/109/109 111/111/111 102/102/102 
f 111/111/111 109/109/109 112/112/112 
f 112/112/112 113/113/113 111/111/111 
f 111/111/111 113/113/113 114/114/114 
f 102/102/102 111/111/111 115/115/115 
f 114/114/114 115/115/115 111/111/111 
f 115/115/115 98/98/98 102/102/102 
f 98/98/98 115/115/115 96/96/96 
f 116/116/116 115/115/115 114/114/114 
f 96/96/96 115/115/115 116/116/116 
f 114/114/114 117/117/117 116/116/116 
f 116/116/116 118/118/118 96/96/96 
f 96/96/96 118/118/118 94/94/94 
f 104/104/104 94/94/94 118/118/118 
f 118/118/118 110/110/110 104/104/104 
f 116/116/116 117/117/117 119/119/119 
f 119/119/119 117/117/117 120/120/120 
f 118/118/118 116/116/116 121/121/121 
f 119/119/119 121/121/121 116/116/116 
f 121/121/121 110/110/110 118/118/118 
f 121/121/121 119/119/119 120/120/120 
f 106/106/106 110/110/110 121/121/121 
f 120/120/120 122/122/122 121/121/121 
f 121/121/121 122/122/122 106/106/106 

mtllib decl_000_u.mtl

o decl_000_u_low_1

usemtl decl_000_u_1

v 0.00195313 -0.16064450 0.28125000
v -0.12939450 -0.17968750 0.28466800
v -0.10351560 -0.14355470 0.19433590
v -0.15136720 -0.09082031 0.12158200
v -0.00048828 -0.15136720 0.05078125
v 0.00048828 -0.16406250 0.20849610
v 0.10449220 -0.13378910 0.19628910
v 0.11865230 -0.17968750 0.28564450
v 0.13623050 -0.11621090 0.10986330

vn 0.01953125 -0.98437500 -0.17968750
vn 0.12890630 -0.93359370 -0.33984380
vn -0.18750000 -0.96875000 -0.17187500
vn -0.47265620 -0.83203120 -0.29296880
vn -0.02734375 -0.98828130 -0.14062500
vn 0.04296875 -1.00000000 -0.01562500
vn 0.18359380 -0.97265620 -0.14843750
vn -0.13281250 -0.89062500 -0.43750000
vn 0.28515620 -0.95312500 -0.08984375

vt 0.48554990 0.8160706
vt 0.07691956 0.8390503
vt 0.15806580 0.5417633
vt -0.02534485 0.2909851
vt 0.49073790 0.10385129999999998
vt 0.48347470 0.5965118
vt 0.81829830 0.5555573
vt 0.84309390 0.8614501999999999
vt 0.92984010 0.2858429

f 123/123/123 124/124/124 125/125/125 
f 125/125/125 126/126/126 127/127/127 
f 125/125/125 128/128/128 123/123/123 
f 127/127/127 128/128/128 125/125/125 
f 123/123/123 128/128/128 129/129/129 
f 129/129/129 128/128/128 127/127/127 
f 129/129/129 130/130/130 123/123/123 
f 127/127/127 131/131/131 129/129/129 

