{
	"asset":{
		"generator":"Khronos glTF Blender I/O v4.1.63",
		"version":"2.0"
	},
	"scene":0,
	"scenes":[
		{
			"name":"Scene",
			"nodes":[
				0,
				1,
				2,
				3,
				4,
				5,
				6
			]
		}
	],
	"nodes":[
		{
			"mesh":0,
			"name":"Cube.002"
		},
		{
			"mesh":1,
			"name":"Cube.003"
		},
		{
			"mesh":2,
			"name":"BarramundiFish"
		},
		{
			"mesh":3,
			"name":"Cylinder"
		},
		{
			"mesh":4,
			"name":"Cube.001"
		},
		{
			"mesh":5,
			"name":"Sphere"
		},
		{
			"mesh":6,
			"name":"Plane"
		}
	],
	"materials":[
		{
			"doubleSided":true,
			"name":"Material.001",
			"pbrMetallicRoughness":{
				"baseColorTexture":{
					"index":0
				},
				"metallicFactor":0,
				"roughnessFactor":0.5
			}
		},
		{
			"doubleSided":true,
			"name":"Material.007",
			"pbrMetallicRoughness":{
				"baseColorTexture":{
					"index":1
				},
				"metallicFactor":0,
				"roughnessFactor":0.5
			}
		},
		{
			"name":"7288_barramundi fish_col",
			"normalTexture":{
				"index":2
			},
			"occlusionTexture":{
				"index":3
			},
			"pbrMetallicRoughness":{
				"baseColorTexture":{
					"index":4
				},
				"metallicRoughnessTexture":{
					"index":3
				}
			}
		},
		{
			"doubleSided":true,
			"name":"Material.003",
			"pbrMetallicRoughness":{
				"baseColorTexture":{
					"index":5
				},
				"metallicFactor":0,
				"roughnessFactor":0.5
			}
		},
		{
			"doubleSided":true,
			"name":"Material.004",
			"pbrMetallicRoughness":{
				"baseColorTexture":{
					"index":6
				},
				"metallicFactor":0,
				"roughnessFactor":0.5
			}
		},
		{
			"doubleSided":true,
			"name":"Material.002",
			"pbrMetallicRoughness":{
				"baseColorTexture":{
					"index":7
				},
				"metallicFactor":0,
				"roughnessFactor":0.5
			}
		},
		{
			"doubleSided":true,
			"name":"Material.009",
			"pbrMetallicRoughness":{
				"baseColorTexture":{
					"index":8
				},
				"metallicFactor":0,
				"roughnessFactor":0.5
			}
		}
	],
	"meshes":[
		{
			"name":"Cube.001",
			"primitives":[
				{
					"attributes":{
						"POSITION":0,
						"NORMAL":1,
						"TEXCOORD_0":2
					},
					"indices":3,
					"material":0
				}
			]
		},
		{
			"name":"Cube.002",
			"primitives":[
				{
					"attributes":{
						"POSITION":4,
						"NORMAL":5,
						"TEXCOORD_0":6
					},
					"indices":7,
					"material":1
				}
			]
		},
		{
			"name":"barramundi_fish_Hero",
			"primitives":[
				{
					"attributes":{
						"POSITION":8,
						"NORMAL":9,
						"TEXCOORD_0":10
					},
					"indices":11,
					"material":2
				}
			]
		},
		{
			"name":"Cylinder",
			"primitives":[
				{
					"attributes":{
						"POSITION":12,
						"NORMAL":13,
						"TEXCOORD_0":14
					},
					"indices":15,
					"material":3
				}
			]
		},
		{
			"name":"Cube",
			"primitives":[
				{
					"attributes":{
						"POSITION":16,
						"NORMAL":17,
						"TEXCOORD_0":18
					},
					"indices":19,
					"material":4
				}
			]
		},
		{
			"name":"Sphere",
			"primitives":[
				{
					"attributes":{
						"POSITION":20,
						"NORMAL":21,
						"TEXCOORD_0":22
					},
					"indices":23,
					"material":5
				}
			]
		},
		{
			"name":"Plane.001",
			"primitives":[
				{
					"attributes":{
						"POSITION":24,
						"NORMAL":25,
						"TEXCOORD_0":26
					},
					"indices":27,
					"material":6
				}
			]
		}
	],
	"textures":[
		{
			"sampler":0,
			"source":0
		},
		{
			"sampler":0,
			"source":1
		},
		{
			"sampler":0,
			"source":2
		},
		{
			"sampler":0,
			"source":3
		},
		{
			"sampler":0,
			"source":4
		},
		{
			"sampler":0,
			"source":5
		},
		{
			"sampler":0,
			"source":6
		},
		{
			"sampler":0,
			"source":7
		},
		{
			"sampler":0,
			"source":8
		}
	],
	"images":[
		{
			"mimeType":"image/png",
			"name":"Saguaro_BaseColor",
			"uri":"Saguaro_BaseColor.png"
		},
		{
			"mimeType":"image/png",
			"name":"Pool_Statue_BaseColor",
			"uri":"Pool_Statue_BaseColor.png"
		},
		{
			"mimeType":"image/png",
			"name":"BarramundiFish_normal",
			"uri":"BarramundiFish_normal.png"
		},
		{
			"mimeType":"image/png",
			"name":"BarramundiFish_occlusionRoughnessMetallic",
			"uri":"BarramundiFish_occlusionRoughnessMetallic.png"
		},
		{
			"mimeType":"image/png",
			"name":"BarramundiFish_baseColor",
			"uri":"BarramundiFish_baseColor.png"
		},
		{
			"mimeType":"image/png",
			"name":"Pillars_BaseColor",
			"uri":"Pillars_BaseColor.png"
		},
		{
			"mimeType":"image/png",
			"name":"Pillar_Stone_BaseColor",
			"uri":"Pillar_Stone_BaseColor.png"
		},
		{
			"mimeType":"image/png",
			"name":"Rock_BaseColor",
			"uri":"Rock_BaseColor.png"
		},
		{
			"mimeType":"image/png",
			"name":"Floor_Plane_BaseColor",
			"uri":"Floor_Plane_BaseColor.png"
		}
	],
	"accessors":[
		{
			"bufferView":0,
			"componentType":5126,
			"count":687,
			"max":[
				-26.82889175415039,
				28.93564224243164,
				14.847212791442871
			],
			"min":[
				-37.3205680847168,
				-0.9559377431869507,
				6.5200300216674805
			],
			"type":"VEC3"
		},
		{
			"bufferView":1,
			"componentType":5126,
			"count":687,
			"type":"VEC3"
		},
		{
			"bufferView":2,
			"componentType":5126,
			"count":687,
			"type":"VEC2"
		},
		{
			"bufferView":3,
			"componentType":5123,
			"count":1176,
			"type":"SCALAR"
		},
		{
			"bufferView":4,
			"componentType":5126,
			"count":104,
			"max":[
				2.763310432434082,
				29.425975799560547,
				-22.218263626098633
			],
			"min":[
				-27.914419174194336,
				2.865980386734009,
				-44.47274398803711
			],
			"type":"VEC3"
		},
		{
			"bufferView":5,
			"componentType":5126,
			"count":104,
			"type":"VEC3"
		},
		{
			"bufferView":6,
			"componentType":5126,
			"count":104,
			"type":"VEC2"
		},
		{
			"bufferView":7,
			"componentType":5123,
			"count":108,
			"type":"SCALAR"
		},
		{
			"bufferView":8,
			"componentType":5126,
			"count":6564,
			"max":[
				-42.702484130859375,
				-0.9662302732467651,
				-10.929929733276367
			],
			"min":[
				-44.89076614379883,
				-2.7159767150878906,
				-16.06766128540039
			],
			"type":"VEC3"
		},
		{
			"bufferView":9,
			"componentType":5126,
			"count":6564,
			"type":"VEC3"
		},
		{
			"bufferView":10,
			"componentType":5126,
			"count":6564,
			"type":"VEC2"
		},
		{
			"bufferView":11,
			"componentType":5123,
			"count":34776,
			"type":"SCALAR"
		},
		{
			"bufferView":12,
			"componentType":5126,
			"count":144,
			"max":[
				-32.53310775756836,
				28.394453048706055,
				-32.69435501098633
			],
			"min":[
				-56.799339294433594,
				-9.932548522949219,
				-57.42865753173828
			],
			"type":"VEC3"
		},
		{
			"bufferView":13,
			"componentType":5126,
			"count":144,
			"type":"VEC3"
		},
		{
			"bufferView":14,
			"componentType":5126,
			"count":144,
			"type":"VEC2"
		},
		{
			"bufferView":15,
			"componentType":5123,
			"count":216,
			"type":"SCALAR"
		},
		{
			"bufferView":16,
			"componentType":5126,
			"count":120,
			"max":[
				-27.448591232299805,
				31.5050106048584,
				-27.794157028198242
			],
			"min":[
				-61.133331298828125,
				23.943504333496094,
				-62.958351135253906
			],
			"type":"VEC3"
		},
		{
			"bufferView":17,
			"componentType":5126,
			"count":120,
			"type":"VEC3"
		},
		{
			"bufferView":18,
			"componentType":5126,
			"count":120,
			"type":"VEC2"
		},
		{
			"bufferView":19,
			"componentType":5123,
			"count":180,
			"type":"SCALAR"
		},
		{
			"bufferView":20,
			"componentType":5126,
			"count":419,
			"max":[
				-34.86813735961914,
				24.86931800842285,
				31.4079647064209
			],
			"min":[
				-106.64202117919922,
				-3.1354942321777344,
				-41.120086669921875
			],
			"type":"VEC3"
		},
		{
			"bufferView":21,
			"componentType":5126,
			"count":419,
			"type":"VEC3"
		},
		{
			"bufferView":22,
			"componentType":5126,
			"count":419,
			"type":"VEC2"
		},
		{
			"bufferView":23,
			"componentType":5123,
			"count":708,
			"type":"SCALAR"
		},
		{
			"bufferView":24,
			"componentType":5126,
			"count":274,
			"max":[
				11.304313659667969,
				0.0474739670753479,
				47.39717102050781
			],
			"min":[
				-78.30204772949219,
				-2.574052572250366,
				-59.40961456298828
			],
			"type":"VEC3"
		},
		{
			"bufferView":25,
			"componentType":5126,
			"count":274,
			"type":"VEC3"
		},
		{
			"bufferView":26,
			"componentType":5126,
			"count":274,
			"type":"VEC2"
		},
		{
			"bufferView":27,
			"componentType":5123,
			"count":864,
			"type":"SCALAR"
		}
	],
	"bufferViews":[
		{
			"buffer":0,
			"byteLength":8244,
			"byteOffset":0,
			"target":34962
		},
		{
			"buffer":0,
			"byteLength":8244,
			"byteOffset":8244,
			"target":34962
		},
		{
			"buffer":0,
			"byteLength":5496,
			"byteOffset":16488,
			"target":34962
		},
		{
			"buffer":0,
			"byteLength":2352,
			"byteOffset":21984,
			"target":34963
		},
		{
			"buffer":0,
			"byteLength":1248,
			"byteOffset":24336,
			"target":34962
		},
		{
			"buffer":0,
			"byteLength":1248,
			"byteOffset":25584,
			"target":34962
		},
		{
			"buffer":0,
			"byteLength":832,
			"byteOffset":26832,
			"target":34962
		},
		{
			"buffer":0,
			"byteLength":216,
			"byteOffset":27664,
			"target":34963
		},
		{
			"buffer":0,
			"byteLength":78768,
			"byteOffset":27880,
			"target":34962
		},
		{
			"buffer":0,
			"byteLength":78768,
			"byteOffset":106648,
			"target":34962
		},
		{
			"buffer":0,
			"byteLength":52512,
			"byteOffset":185416,
			"target":34962
		},
		{
			"buffer":0,
			"byteLength":69552,
			"byteOffset":237928,
			"target":34963
		},
		{
			"buffer":0,
			"byteLength":1728,
			"byteOffset":307480,
			"target":34962
		},
		{
			"buffer":0,
			"byteLength":1728,
			"byteOffset":309208,
			"target":34962
		},
		{
			"buffer":0,
			"byteLength":1152,
			"byteOffset":310936,
			"target":34962
		},
		{
			"buffer":0,
			"byteLength":432,
			"byteOffset":312088,
			"target":34963
		},
		{
			"buffer":0,
			"byteLength":1440,
			"byteOffset":312520,
			"target":34962
		},
		{
			"buffer":0,
			"byteLength":1440,
			"byteOffset":313960,
			"target":34962
		},
		{
			"buffer":0,
			"byteLength":960,
			"byteOffset":315400,
			"target":34962
		},
		{
			"buffer":0,
			"byteLength":360,
			"byteOffset":316360,
			"target":34963
		},
		{
			"buffer":0,
			"byteLength":5028,
			"byteOffset":316720,
			"target":34962
		},
		{
			"buffer":0,
			"byteLength":5028,
			"byteOffset":321748,
			"target":34962
		},
		{
			"buffer":0,
			"byteLength":3352,
			"byteOffset":326776,
			"target":34962
		},
		{
			"buffer":0,
			"byteLength":1416,
			"byteOffset":330128,
			"target":34963
		},
		{
			"buffer":0,
			"byteLength":3288,
			"byteOffset":331544,
			"target":34962
		},
		{
			"buffer":0,
			"byteLength":3288,
			"byteOffset":334832,
			"target":34962
		},
		{
			"buffer":0,
			"byteLength":2192,
			"byteOffset":338120,
			"target":34962
		},
		{
			"buffer":0,
			"byteLength":1728,
			"byteOffset":340312,
			"target":34963
		}
	],
	"samplers":[
		{
			"magFilter":9729,
			"minFilter":9987
		}
	],
	"buffers":[
		{
			"byteLength":342040,
			"uri":"testScene.bin"
		}
	]
}
