{
	"asset":{
		"generator":"Khronos glTF Blender I/O v4.1.63",
		"version":"2.0"
	},
	"scene":0,
	"scenes":[
		{
			"name":"Scene",
			"nodes":[
				0
			]
		}
	],
	"nodes":[
		{
			"mesh":0,
			"name":"Cube",
			"scale":[
				3.6126599311828613,
				3.6126599311828613,
				3.6126599311828613
			]
		}
	],
	"materials":[
		{
			"doubleSided":true,
			"name":"Material",
			"pbrMetallicRoughness":{
				"baseColorFactor":[
					0.800000011920929,
					0.800000011920929,
					0.800000011920929,
					1
				],
				"metallicFactor":0,
				"roughnessFactor":0.5
			}
		}
	],
	"meshes":[
		{
			"name":"Floor",
			"primitives":[
				{
					"attributes":{
						"POSITION":0,
						"NORMAL":1,
						"TEXCOORD_0":2
					},
					"indices":3,
					"material":0
				}
			]
		}
	],
	"accessors":[
		{
			"bufferView":0,
			"componentType":5126,
			"count":1429,
			"max":[
				13.847890853881836,
				1.9096801280975342,
				13.855945587158203
			],
			"min":[
				-13.847890853881836,
				0.008961319923400879,
				-13.805374145507812
			],
			"type":"VEC3"
		},
		{
			"bufferView":1,
			"componentType":5126,
			"count":1429,
			"type":"VEC3"
		},
		{
			"bufferView":2,
			"componentType":5126,
			"count":1429,
			"type":"VEC2"
		},
		{
			"bufferView":3,
			"componentType":5123,
			"count":3360,
			"type":"SCALAR"
		}
	],
	"bufferViews":[
		{
			"buffer":0,
			"byteLength":17148,
			"byteOffset":0,
			"target":34962
		},
		{
			"buffer":0,
			"byteLength":17148,
			"byteOffset":17148,
			"target":34962
		},
		{
			"buffer":0,
			"byteLength":11432,
			"byteOffset":34296,
			"target":34962
		},
		{
			"buffer":0,
			"byteLength":6720,
			"byteOffset":45728,
			"target":34963
		}
	],
	"buffers":[
		{
			"byteLength":52448,
			"uri":"floor_ruin_hole.bin"
		}
	]
}
