{
	"asset":{
		"generator":"Khronos glTF Blender I/O v4.1.63",
		"version":"2.0"
	},
	"scene":0,
	"scenes":[
		{
			"name":"Scene",
			"nodes":[
				0
			]
		}
	],
	"nodes":[
		{
			"mesh":0,
			"name":"Cube"
		}
	],
	"materials":[
		{
			"doubleSided":true,
			"name":"Material",
			"pbrMetallicRoughness":{
				"baseColorFactor":[
					0.800000011920929,
					0.800000011920929,
					0.800000011920929,
					1
				],
				"metallicFactor":0,
				"roughnessFactor":0.5
			}
		}
	],
	"meshes":[
		{
			"name":"Cube",
			"primitives":[
				{
					"attributes":{
						"POSITION":0,
						"NORMAL":1,
						"TEXCOORD_0":2
					},
					"indices":3,
					"material":0
				}
			]
		}
	],
	"accessors":[
		{
			"bufferView":0,
			"componentType":5126,
			"count":644,
			"max":[
				4.057435989379883,
				20.26317596435547,
				2.9097368717193604
			],
			"min":[
				-3.2547645568847656,
				-0.5698397159576416,
				-2.8939151763916016
			],
			"type":"VEC3"
		},
		{
			"bufferView":1,
			"componentType":5126,
			"count":644,
			"type":"VEC3"
		},
		{
			"bufferView":2,
			"componentType":5126,
			"count":644,
			"type":"VEC2"
		},
		{
			"bufferView":3,
			"componentType":5123,
			"count":1176,
			"type":"SCALAR"
		}
	],
	"bufferViews":[
		{
			"buffer":0,
			"byteLength":7728,
			"byteOffset":0,
			"target":34962
		},
		{
			"buffer":0,
			"byteLength":7728,
			"byteOffset":7728,
			"target":34962
		},
		{
			"buffer":0,
			"byteLength":5152,
			"byteOffset":15456,
			"target":34962
		},
		{
			"buffer":0,
			"byteLength":2352,
			"byteOffset":20608,
			"target":34963
		}
	],
	"buffers":[
		{
			"byteLength":22960,
			"uri":"saguaro.bin"
		}
	]
}
