{
	"asset":{
		"generator":"Khronos glTF Blender I/O v4.1.63",
		"version":"2.0"
	},
	"scene":0,
	"scenes":[
		{
			"name":"Scene",
			"nodes":[
				17
			]
		}
	],
	"nodes":[
		{
			"name":"atama",
			"translation":[
				0.001094497856684029,
				0.24735665321350098,
				0
			]
		},
		{
			"children":[
				0
			],
			"name":"neck",
			"translation":[
				-1.862645149230957e-09,
				0.07004737854003906,
				0
			]
		},
		{
			"name":"R_te",
			"translation":[
				0.23312729597091675,
				-0.203576922416687,
				2.970992341033707e-10
			]
		},
		{
			"children":[
				2
			],
			"name":"R_kurubushi",
			"translation":[
				0.20795482397079468,
				-0.16636264324188232,
				-1.6575540939811617e-10
			]
		},
		{
			"children":[
				3
			],
			"name":"R_kata",
			"translation":[
				0.11949336528778076,
				-0.00437843706458807,
				-0.010446050204336643
			]
		},
		{
			"name":"L_te",
			"translation":[
				0.23312729597091675,
				-0.20356976985931396,
				1.9838619635947907e-08
			]
		},
		{
			"children":[
				5
			],
			"name":"L_kurubushi",
			"rotation":[
				0,
				-3.178651297730539e-08,
				0,
				1
			],
			"translation":[
				0.20795400440692902,
				-0.16636991500854492,
				3.191409092551112e-08
			]
		},
		{
			"children":[
				6
			],
			"name":"L_kata",
			"rotation":[
				0,
				-1,
				0,
				7.549790126404332e-08
			],
			"translation":[
				-0.11949370801448822,
				-0.004374264739453793,
				-0.010445999912917614
			]
		},
		{
			"children":[
				1,
				4,
				7
			],
			"name":"sakotsu",
			"translation":[
				0,
				0.33491599559783936,
				0
			]
		},
		{
			"name":"R_ashi",
			"rotation":[
				1.5200397991216525e-16,
				-0.7303908467292786,
				4.530071613555111e-24,
				0.6830294728279114
			],
			"scale":[
				0.9999998807907104,
				0.9999998807907104,
				0.9999998807907104
			],
			"translation":[
				0.0817500650882721,
				-0.5209966897964478,
				4.143640985887487e-09
			]
		},
		{
			"children":[
				9
			],
			"name":"R_hiza",
			"rotation":[
				-9.947102828718906e-16,
				-0.892901599407196,
				0,
				0.45025181770324707
			],
			"translation":[
				0.03301616385579109,
				-0.4249113202095032,
				-4.452456181525122e-09
			]
		},
		{
			"children":[
				10
			],
			"name":"R_ashi_tsukene",
			"rotation":[
				0,
				-0.9387378692626953,
				0,
				0.3446319103240967
			],
			"scale":[
				1,
				0.9999999403953552,
				1
			],
			"translation":[
				0.08337534219026566,
				-0.09959900379180908,
				0
			]
		},
		{
			"name":"L_ashi",
			"rotation":[
				0,
				0.7303905487060547,
				0,
				0.6830297112464905
			],
			"translation":[
				0.08175008744001389,
				-0.5209968686103821,
				-1.1128561183681995e-08
			]
		},
		{
			"children":[
				12
			],
			"name":"L_hiza",
			"rotation":[
				-1.9894199304690708e-15,
				0.8929018974304199,
				2.4867749130863385e-16,
				0.4502513110637665
			],
			"translation":[
				0.033016156405210495,
				-0.42491084337234497,
				1.004039873464535e-08
			]
		},
		{
			"children":[
				13
			],
			"name":"L_ashi_tsukene",
			"rotation":[
				0,
				-0.34463199973106384,
				0,
				0.9387378692626953
			],
			"translation":[
				-0.08337530493736267,
				-0.09959912300109863,
				3.725290298461914e-09
			]
		},
		{
			"children":[
				8,
				11,
				14
			],
			"name":"koshi",
			"rotation":[
				-0.7071067690849304,
				0,
				0,
				0.7071067690849304
			],
			"translation":[
				0,
				0,
				-1.0548679828643799
			]
		},
		{
			"mesh":0,
			"name":"AzumaAnimeHead1",
			"skin":0
		},
		{
			"children":[
				16,
				15
			],
			"name":"Armature",
			"rotation":[
				0.7071068286895752,
				0,
				0,
				0.7071068286895752
			]
		}
	],
	"animations":[
		{
			"channels":[
				{
					"sampler":0,
					"target":{
						"node":15,
						"path":"translation"
					}
				},
				{
					"sampler":1,
					"target":{
						"node":15,
						"path":"rotation"
					}
				},
				{
					"sampler":2,
					"target":{
						"node":15,
						"path":"scale"
					}
				},
				{
					"sampler":3,
					"target":{
						"node":8,
						"path":"translation"
					}
				},
				{
					"sampler":4,
					"target":{
						"node":8,
						"path":"rotation"
					}
				},
				{
					"sampler":5,
					"target":{
						"node":8,
						"path":"scale"
					}
				},
				{
					"sampler":6,
					"target":{
						"node":1,
						"path":"translation"
					}
				},
				{
					"sampler":7,
					"target":{
						"node":1,
						"path":"rotation"
					}
				},
				{
					"sampler":8,
					"target":{
						"node":1,
						"path":"scale"
					}
				},
				{
					"sampler":9,
					"target":{
						"node":0,
						"path":"translation"
					}
				},
				{
					"sampler":10,
					"target":{
						"node":0,
						"path":"rotation"
					}
				},
				{
					"sampler":11,
					"target":{
						"node":0,
						"path":"scale"
					}
				},
				{
					"sampler":12,
					"target":{
						"node":4,
						"path":"translation"
					}
				},
				{
					"sampler":13,
					"target":{
						"node":4,
						"path":"rotation"
					}
				},
				{
					"sampler":14,
					"target":{
						"node":4,
						"path":"scale"
					}
				},
				{
					"sampler":15,
					"target":{
						"node":3,
						"path":"translation"
					}
				},
				{
					"sampler":16,
					"target":{
						"node":3,
						"path":"rotation"
					}
				},
				{
					"sampler":17,
					"target":{
						"node":3,
						"path":"scale"
					}
				},
				{
					"sampler":18,
					"target":{
						"node":2,
						"path":"translation"
					}
				},
				{
					"sampler":19,
					"target":{
						"node":2,
						"path":"rotation"
					}
				},
				{
					"sampler":20,
					"target":{
						"node":2,
						"path":"scale"
					}
				},
				{
					"sampler":21,
					"target":{
						"node":7,
						"path":"translation"
					}
				},
				{
					"sampler":22,
					"target":{
						"node":7,
						"path":"rotation"
					}
				},
				{
					"sampler":23,
					"target":{
						"node":7,
						"path":"scale"
					}
				},
				{
					"sampler":24,
					"target":{
						"node":6,
						"path":"translation"
					}
				},
				{
					"sampler":25,
					"target":{
						"node":6,
						"path":"rotation"
					}
				},
				{
					"sampler":26,
					"target":{
						"node":6,
						"path":"scale"
					}
				},
				{
					"sampler":27,
					"target":{
						"node":5,
						"path":"translation"
					}
				},
				{
					"sampler":28,
					"target":{
						"node":5,
						"path":"rotation"
					}
				},
				{
					"sampler":29,
					"target":{
						"node":5,
						"path":"scale"
					}
				},
				{
					"sampler":30,
					"target":{
						"node":11,
						"path":"translation"
					}
				},
				{
					"sampler":31,
					"target":{
						"node":11,
						"path":"rotation"
					}
				},
				{
					"sampler":32,
					"target":{
						"node":11,
						"path":"scale"
					}
				},
				{
					"sampler":33,
					"target":{
						"node":10,
						"path":"translation"
					}
				},
				{
					"sampler":34,
					"target":{
						"node":10,
						"path":"rotation"
					}
				},
				{
					"sampler":35,
					"target":{
						"node":10,
						"path":"scale"
					}
				},
				{
					"sampler":36,
					"target":{
						"node":9,
						"path":"translation"
					}
				},
				{
					"sampler":37,
					"target":{
						"node":9,
						"path":"rotation"
					}
				},
				{
					"sampler":38,
					"target":{
						"node":9,
						"path":"scale"
					}
				},
				{
					"sampler":39,
					"target":{
						"node":14,
						"path":"translation"
					}
				},
				{
					"sampler":40,
					"target":{
						"node":14,
						"path":"rotation"
					}
				},
				{
					"sampler":41,
					"target":{
						"node":14,
						"path":"scale"
					}
				},
				{
					"sampler":42,
					"target":{
						"node":13,
						"path":"translation"
					}
				},
				{
					"sampler":43,
					"target":{
						"node":13,
						"path":"rotation"
					}
				},
				{
					"sampler":44,
					"target":{
						"node":13,
						"path":"scale"
					}
				},
				{
					"sampler":45,
					"target":{
						"node":12,
						"path":"translation"
					}
				},
				{
					"sampler":46,
					"target":{
						"node":12,
						"path":"rotation"
					}
				},
				{
					"sampler":47,
					"target":{
						"node":12,
						"path":"scale"
					}
				}
			],
			"name":"ArmatureAction",
			"samplers":[
				{
					"input":6,
					"interpolation":"LINEAR",
					"output":7
				},
				{
					"input":8,
					"interpolation":"STEP",
					"output":9
				},
				{
					"input":8,
					"interpolation":"STEP",
					"output":10
				},
				{
					"input":8,
					"interpolation":"STEP",
					"output":11
				},
				{
					"input":6,
					"interpolation":"LINEAR",
					"output":12
				},
				{
					"input":8,
					"interpolation":"STEP",
					"output":13
				},
				{
					"input":8,
					"interpolation":"LINEAR",
					"output":14
				},
				{
					"input":6,
					"interpolation":"LINEAR",
					"output":15
				},
				{
					"input":8,
					"interpolation":"LINEAR",
					"output":16
				},
				{
					"input":8,
					"interpolation":"STEP",
					"output":17
				},
				{
					"input":8,
					"interpolation":"STEP",
					"output":18
				},
				{
					"input":8,
					"interpolation":"STEP",
					"output":19
				},
				{
					"input":8,
					"interpolation":"LINEAR",
					"output":20
				},
				{
					"input":6,
					"interpolation":"LINEAR",
					"output":21
				},
				{
					"input":8,
					"interpolation":"LINEAR",
					"output":22
				},
				{
					"input":8,
					"interpolation":"LINEAR",
					"output":23
				},
				{
					"input":6,
					"interpolation":"LINEAR",
					"output":24
				},
				{
					"input":8,
					"interpolation":"LINEAR",
					"output":25
				},
				{
					"input":8,
					"interpolation":"STEP",
					"output":26
				},
				{
					"input":8,
					"interpolation":"STEP",
					"output":27
				},
				{
					"input":8,
					"interpolation":"STEP",
					"output":28
				},
				{
					"input":8,
					"interpolation":"LINEAR",
					"output":29
				},
				{
					"input":6,
					"interpolation":"LINEAR",
					"output":30
				},
				{
					"input":8,
					"interpolation":"STEP",
					"output":31
				},
				{
					"input":8,
					"interpolation":"STEP",
					"output":32
				},
				{
					"input":8,
					"interpolation":"STEP",
					"output":33
				},
				{
					"input":8,
					"interpolation":"STEP",
					"output":34
				},
				{
					"input":8,
					"interpolation":"STEP",
					"output":35
				},
				{
					"input":8,
					"interpolation":"STEP",
					"output":36
				},
				{
					"input":8,
					"interpolation":"STEP",
					"output":37
				},
				{
					"input":8,
					"interpolation":"LINEAR",
					"output":38
				},
				{
					"input":6,
					"interpolation":"LINEAR",
					"output":39
				},
				{
					"input":8,
					"interpolation":"STEP",
					"output":40
				},
				{
					"input":8,
					"interpolation":"LINEAR",
					"output":41
				},
				{
					"input":6,
					"interpolation":"LINEAR",
					"output":42
				},
				{
					"input":8,
					"interpolation":"STEP",
					"output":43
				},
				{
					"input":8,
					"interpolation":"STEP",
					"output":44
				},
				{
					"input":8,
					"interpolation":"STEP",
					"output":45
				},
				{
					"input":8,
					"interpolation":"STEP",
					"output":46
				},
				{
					"input":8,
					"interpolation":"LINEAR",
					"output":47
				},
				{
					"input":6,
					"interpolation":"LINEAR",
					"output":48
				},
				{
					"input":8,
					"interpolation":"LINEAR",
					"output":49
				},
				{
					"input":8,
					"interpolation":"LINEAR",
					"output":50
				},
				{
					"input":6,
					"interpolation":"LINEAR",
					"output":51
				},
				{
					"input":8,
					"interpolation":"LINEAR",
					"output":52
				},
				{
					"input":8,
					"interpolation":"STEP",
					"output":53
				},
				{
					"input":8,
					"interpolation":"STEP",
					"output":54
				},
				{
					"input":8,
					"interpolation":"STEP",
					"output":55
				}
			]
		}
	],
	"materials":[
		{
			"doubleSided":true,
			"name":"Material",
			"pbrMetallicRoughness":{
				"baseColorTexture":{
					"index":0
				},
				"metallicFactor":0,
				"roughnessFactor":0.5
			}
		}
	],
	"meshes":[
		{
			"name":"AzumaAnimeHead1Shape",
			"primitives":[
				{
					"attributes":{
						"POSITION":0,
						"NORMAL":1,
						"JOINTS_0":2,
						"WEIGHTS_0":3
					},
					"indices":4,
					"material":0
				}
			]
		}
	],
	"textures":[
		{
			"sampler":0,
			"source":0
		}
	],
	"images":[
		{
			"mimeType":"image/png",
			"name":"base_color",
			"uri":"base_color.png"
		}
	],
	"skins":[
		{
			"inverseBindMatrices":5,
			"joints":[
				15,
				8,
				1,
				0,
				4,
				3,
				2,
				7,
				6,
				5,
				11,
				10,
				9,
				14,
				13,
				12
			],
			"name":"Armature"
		}
	],
	"accessors":[
		{
			"bufferView":0,
			"componentType":5126,
			"count":29191,
			"max":[
				0.6267074942588806,
				1.7080919742584229,
				0.11571988463401794
			],
			"min":[
				-0.6267074942588806,
				-0.01595294289290905,
				-0.09791261702775955
			],
			"type":"VEC3"
		},
		{
			"bufferView":1,
			"componentType":5126,
			"count":29191,
			"type":"VEC3"
		},
		{
			"bufferView":2,
			"componentType":5121,
			"count":29191,
			"type":"VEC4"
		},
		{
			"bufferView":3,
			"componentType":5126,
			"count":29191,
			"type":"VEC4"
		},
		{
			"bufferView":4,
			"componentType":5123,
			"count":158694,
			"type":"SCALAR"
		},
		{
			"bufferView":5,
			"componentType":5126,
			"count":16,
			"type":"MAT4"
		},
		{
			"bufferView":6,
			"componentType":5126,
			"count":24,
			"max":[
				0.9583333333333334
			],
			"min":[
				0
			],
			"type":"SCALAR"
		},
		{
			"bufferView":7,
			"componentType":5126,
			"count":24,
			"type":"VEC3"
		},
		{
			"bufferView":8,
			"componentType":5126,
			"count":2,
			"max":[
				0.9583333333333334
			],
			"min":[
				0
			],
			"type":"SCALAR"
		},
		{
			"bufferView":9,
			"componentType":5126,
			"count":2,
			"type":"VEC4"
		},
		{
			"bufferView":10,
			"componentType":5126,
			"count":2,
			"type":"VEC3"
		},
		{
			"bufferView":11,
			"componentType":5126,
			"count":2,
			"type":"VEC3"
		},
		{
			"bufferView":12,
			"componentType":5126,
			"count":24,
			"type":"VEC4"
		},
		{
			"bufferView":13,
			"componentType":5126,
			"count":2,
			"type":"VEC3"
		},
		{
			"bufferView":14,
			"componentType":5126,
			"count":2,
			"type":"VEC3"
		},
		{
			"bufferView":15,
			"componentType":5126,
			"count":24,
			"type":"VEC4"
		},
		{
			"bufferView":16,
			"componentType":5126,
			"count":2,
			"type":"VEC3"
		},
		{
			"bufferView":17,
			"componentType":5126,
			"count":2,
			"type":"VEC3"
		},
		{
			"bufferView":18,
			"componentType":5126,
			"count":2,
			"type":"VEC4"
		},
		{
			"bufferView":19,
			"componentType":5126,
			"count":2,
			"type":"VEC3"
		},
		{
			"bufferView":20,
			"componentType":5126,
			"count":2,
			"type":"VEC3"
		},
		{
			"bufferView":21,
			"componentType":5126,
			"count":24,
			"type":"VEC4"
		},
		{
			"bufferView":22,
			"componentType":5126,
			"count":2,
			"type":"VEC3"
		},
		{
			"bufferView":23,
			"componentType":5126,
			"count":2,
			"type":"VEC3"
		},
		{
			"bufferView":24,
			"componentType":5126,
			"count":24,
			"type":"VEC4"
		},
		{
			"bufferView":25,
			"componentType":5126,
			"count":2,
			"type":"VEC3"
		},
		{
			"bufferView":26,
			"componentType":5126,
			"count":2,
			"type":"VEC3"
		},
		{
			"bufferView":27,
			"componentType":5126,
			"count":2,
			"type":"VEC4"
		},
		{
			"bufferView":28,
			"componentType":5126,
			"count":2,
			"type":"VEC3"
		},
		{
			"bufferView":29,
			"componentType":5126,
			"count":2,
			"type":"VEC3"
		},
		{
			"bufferView":30,
			"componentType":5126,
			"count":24,
			"type":"VEC4"
		},
		{
			"bufferView":31,
			"componentType":5126,
			"count":2,
			"type":"VEC3"
		},
		{
			"bufferView":32,
			"componentType":5126,
			"count":2,
			"type":"VEC3"
		},
		{
			"bufferView":33,
			"componentType":5126,
			"count":2,
			"type":"VEC4"
		},
		{
			"bufferView":34,
			"componentType":5126,
			"count":2,
			"type":"VEC3"
		},
		{
			"bufferView":35,
			"componentType":5126,
			"count":2,
			"type":"VEC3"
		},
		{
			"bufferView":36,
			"componentType":5126,
			"count":2,
			"type":"VEC4"
		},
		{
			"bufferView":37,
			"componentType":5126,
			"count":2,
			"type":"VEC3"
		},
		{
			"bufferView":38,
			"componentType":5126,
			"count":2,
			"type":"VEC3"
		},
		{
			"bufferView":39,
			"componentType":5126,
			"count":24,
			"type":"VEC4"
		},
		{
			"bufferView":40,
			"componentType":5126,
			"count":2,
			"type":"VEC3"
		},
		{
			"bufferView":41,
			"componentType":5126,
			"count":2,
			"type":"VEC3"
		},
		{
			"bufferView":42,
			"componentType":5126,
			"count":24,
			"type":"VEC4"
		},
		{
			"bufferView":43,
			"componentType":5126,
			"count":2,
			"type":"VEC3"
		},
		{
			"bufferView":44,
			"componentType":5126,
			"count":2,
			"type":"VEC3"
		},
		{
			"bufferView":45,
			"componentType":5126,
			"count":2,
			"type":"VEC4"
		},
		{
			"bufferView":46,
			"componentType":5126,
			"count":2,
			"type":"VEC3"
		},
		{
			"bufferView":47,
			"componentType":5126,
			"count":2,
			"type":"VEC3"
		},
		{
			"bufferView":48,
			"componentType":5126,
			"count":24,
			"type":"VEC4"
		},
		{
			"bufferView":49,
			"componentType":5126,
			"count":2,
			"type":"VEC3"
		},
		{
			"bufferView":50,
			"componentType":5126,
			"count":2,
			"type":"VEC3"
		},
		{
			"bufferView":51,
			"componentType":5126,
			"count":24,
			"type":"VEC4"
		},
		{
			"bufferView":52,
			"componentType":5126,
			"count":2,
			"type":"VEC3"
		},
		{
			"bufferView":53,
			"componentType":5126,
			"count":2,
			"type":"VEC3"
		},
		{
			"bufferView":54,
			"componentType":5126,
			"count":2,
			"type":"VEC4"
		},
		{
			"bufferView":55,
			"componentType":5126,
			"count":2,
			"type":"VEC3"
		}
	],
	"bufferViews":[
		{
			"buffer":0,
			"byteLength":350292,
			"byteOffset":0,
			"target":34962
		},
		{
			"buffer":0,
			"byteLength":350292,
			"byteOffset":350292,
			"target":34962
		},
		{
			"buffer":0,
			"byteLength":116764,
			"byteOffset":700584,
			"target":34962
		},
		{
			"buffer":0,
			"byteLength":467056,
			"byteOffset":817348,
			"target":34962
		},
		{
			"buffer":0,
			"byteLength":317388,
			"byteOffset":1284404,
			"target":34963
		},
		{
			"buffer":0,
			"byteLength":1024,
			"byteOffset":1601792
		},
		{
			"buffer":0,
			"byteLength":96,
			"byteOffset":1602816
		},
		{
			"buffer":0,
			"byteLength":288,
			"byteOffset":1602912
		},
		{
			"buffer":0,
			"byteLength":8,
			"byteOffset":1603200
		},
		{
			"buffer":0,
			"byteLength":32,
			"byteOffset":1603208
		},
		{
			"buffer":0,
			"byteLength":24,
			"byteOffset":1603240
		},
		{
			"buffer":0,
			"byteLength":24,
			"byteOffset":1603264
		},
		{
			"buffer":0,
			"byteLength":384,
			"byteOffset":1603288
		},
		{
			"buffer":0,
			"byteLength":24,
			"byteOffset":1603672
		},
		{
			"buffer":0,
			"byteLength":24,
			"byteOffset":1603696
		},
		{
			"buffer":0,
			"byteLength":384,
			"byteOffset":1603720
		},
		{
			"buffer":0,
			"byteLength":24,
			"byteOffset":1604104
		},
		{
			"buffer":0,
			"byteLength":24,
			"byteOffset":1604128
		},
		{
			"buffer":0,
			"byteLength":32,
			"byteOffset":1604152
		},
		{
			"buffer":0,
			"byteLength":24,
			"byteOffset":1604184
		},
		{
			"buffer":0,
			"byteLength":24,
			"byteOffset":1604208
		},
		{
			"buffer":0,
			"byteLength":384,
			"byteOffset":1604232
		},
		{
			"buffer":0,
			"byteLength":24,
			"byteOffset":1604616
		},
		{
			"buffer":0,
			"byteLength":24,
			"byteOffset":1604640
		},
		{
			"buffer":0,
			"byteLength":384,
			"byteOffset":1604664
		},
		{
			"buffer":0,
			"byteLength":24,
			"byteOffset":1605048
		},
		{
			"buffer":0,
			"byteLength":24,
			"byteOffset":1605072
		},
		{
			"buffer":0,
			"byteLength":32,
			"byteOffset":1605096
		},
		{
			"buffer":0,
			"byteLength":24,
			"byteOffset":1605128
		},
		{
			"buffer":0,
			"byteLength":24,
			"byteOffset":1605152
		},
		{
			"buffer":0,
			"byteLength":384,
			"byteOffset":1605176
		},
		{
			"buffer":0,
			"byteLength":24,
			"byteOffset":1605560
		},
		{
			"buffer":0,
			"byteLength":24,
			"byteOffset":1605584
		},
		{
			"buffer":0,
			"byteLength":32,
			"byteOffset":1605608
		},
		{
			"buffer":0,
			"byteLength":24,
			"byteOffset":1605640
		},
		{
			"buffer":0,
			"byteLength":24,
			"byteOffset":1605664
		},
		{
			"buffer":0,
			"byteLength":32,
			"byteOffset":1605688
		},
		{
			"buffer":0,
			"byteLength":24,
			"byteOffset":1605720
		},
		{
			"buffer":0,
			"byteLength":24,
			"byteOffset":1605744
		},
		{
			"buffer":0,
			"byteLength":384,
			"byteOffset":1605768
		},
		{
			"buffer":0,
			"byteLength":24,
			"byteOffset":1606152
		},
		{
			"buffer":0,
			"byteLength":24,
			"byteOffset":1606176
		},
		{
			"buffer":0,
			"byteLength":384,
			"byteOffset":1606200
		},
		{
			"buffer":0,
			"byteLength":24,
			"byteOffset":1606584
		},
		{
			"buffer":0,
			"byteLength":24,
			"byteOffset":1606608
		},
		{
			"buffer":0,
			"byteLength":32,
			"byteOffset":1606632
		},
		{
			"buffer":0,
			"byteLength":24,
			"byteOffset":1606664
		},
		{
			"buffer":0,
			"byteLength":24,
			"byteOffset":1606688
		},
		{
			"buffer":0,
			"byteLength":384,
			"byteOffset":1606712
		},
		{
			"buffer":0,
			"byteLength":24,
			"byteOffset":1607096
		},
		{
			"buffer":0,
			"byteLength":24,
			"byteOffset":1607120
		},
		{
			"buffer":0,
			"byteLength":384,
			"byteOffset":1607144
		},
		{
			"buffer":0,
			"byteLength":24,
			"byteOffset":1607528
		},
		{
			"buffer":0,
			"byteLength":24,
			"byteOffset":1607552
		},
		{
			"buffer":0,
			"byteLength":32,
			"byteOffset":1607576
		},
		{
			"buffer":0,
			"byteLength":24,
			"byteOffset":1607608
		}
	],
	"samplers":[
		{
			"magFilter":9729,
			"minFilter":9987
		}
	],
	"buffers":[
		{
			"byteLength":1607632,
			"uri":"walk_vanilla_woman.bin"
		}
	]
}
