# V 0.13

mtllib accs_001_u.mtl

o accs_001_u_high_1

usemtl accs_001_u_0

v 0.00488281 -0.01513672 0.58593750
v 0.00390625 -0.01708984 0.58837890
v 0.00537109 -0.01806641 0.58837890
v 0.00585938 -0.01611328 0.58642580

vn 0.50000000 0.59375000 0.63281250
vn 0.50000000 0.59375000 0.63281250
vn 0.50000000 0.59375000 0.63281250
vn 0.50000000 0.59375000 0.63281250

vt 0.91896050 0.5024872
vt 0.86273190 0.7122040000000001
vt 0.84529110 0.7001953000000001
vt 0.89871210 0.5009764999999999

f 1/1/1 2/2/2 3/3/3 
f 3/3/3 4/4/4 1/1/1 

mtllib accs_001_u.mtl

o accs_001_u_med_1

usemtl accs_001_u_1

v 0.00488281 -0.01513672 0.58593750
v 0.00390625 -0.01708984 0.58837890
v 0.00537109 -0.01806641 0.58837890
v 0.00585938 -0.01611328 0.58642580

vn 0.50000000 0.59375000 0.63281250
vn 0.50000000 0.59375000 0.63281250
vn 0.50000000 0.59375000 0.63281250
vn 0.50000000 0.59375000 0.63281250

vt 0.91896050 0.5024872
vt 0.86273190 0.7122040000000001
vt 0.84529110 0.7001953000000001
vt 0.89871210 0.5009764999999999

f 5/5/5 6/6/6 7/7/7 
f 7/7/7 8/8/8 5/5/5 

