{
	"asset":{
		"generator":"Khronos glTF Blender I/O v4.1.63",
		"version":"2.0"
	},
	"extensionsUsed":[
		"KHR_materials_specular",
		"KHR_materials_ior"
	],
	"scene":0,
	"scenes":[
		{
			"name":"Scene",
			"nodes":[
				15
			]
		}
	],
	"nodes":[
		{
			"name":"head",
			"translation":[
				0,
				0.9477016925811768,
				0
			]
		},
		{
			"children":[
				0
			],
			"name":"face",
			"translation":[
				0,
				1,
				0
			]
		},
		{
			"name":"wing.left",
			"rotation":[
				-0.06502008438110352,
				-0.03572041168808937,
				-0.7576070427894592,
				0.6484813094139099
			],
			"translation":[
				1.0342655798467604e-07,
				1.4269850254058838,
				7.450580596923828e-09
			]
		},
		{
			"children":[
				2
			],
			"name":"shoulder.left",
			"rotation":[
				0.05783727765083313,
				-0.045284122228622437,
				-0.6148128509521484,
				0.7852448225021362
			],
			"scale":[
				1,
				0.9999999403953552,
				1
			],
			"translation":[
				0,
				1,
				0
			]
		},
		{
			"name":"beak.top",
			"rotation":[
				0.19551895558834076,
				-3.8190296436368953e-07,
				-1.6936941449330334e-07,
				0.980699896812439
			],
			"translation":[
				2.5406590622566866e-14,
				0.7878298163414001,
				5.960464477539063e-08
			]
		},
		{
			"name":"beak.bottom",
			"rotation":[
				0.29773369431495667,
				-1.441495669496362e-07,
				-1.869274797172693e-07,
				0.9546489715576172
			],
			"scale":[
				1,
				0.9999998807907104,
				1
			],
			"translation":[
				2.5406590622566866e-14,
				0.7878298163414001,
				5.960464477539063e-08
			]
		},
		{
			"children":[
				4,
				5
			],
			"name":"mouth",
			"rotation":[
				0.5000693202018738,
				-2.0646693599246646e-07,
				-1.1922577414225088e-07,
				0.8659853935241699
			],
			"scale":[
				1,
				0.9999999403953552,
				1
			],
			"translation":[
				0,
				1,
				0
			]
		},
		{
			"name":"wing.right",
			"rotation":[
				-0.06502008438110352,
				0.03572041168808937,
				0.7576070427894592,
				0.6484813094139099
			],
			"translation":[
				-1.0342655798467604e-07,
				1.4269850254058838,
				7.450580596923828e-09
			]
		},
		{
			"children":[
				7
			],
			"name":"shoulder.right",
			"rotation":[
				0.05783727765083313,
				0.045284122228622437,
				0.6148128509521484,
				0.7852448225021362
			],
			"scale":[
				1,
				0.9999999403953552,
				1
			],
			"translation":[
				0,
				1,
				0
			]
		},
		{
			"children":[
				1,
				3,
				6,
				8
			],
			"name":"abdomen"
		},
		{
			"name":"foot.left",
			"rotation":[
				0.0921989306807518,
				0.027775531634688377,
				-0.6292910575866699,
				0.7711814045906067
			],
			"scale":[
				1,
				0.9999999403953552,
				1
			],
			"translation":[
				-2.220446049250313e-16,
				0.703716516494751,
				7.450580596923828e-09
			]
		},
		{
			"children":[
				10
			],
			"name":"leg.left",
			"rotation":[
				-0.6366931796073914,
				-0.30760669708251953,
				-0.6366931200027466,
				0.30760669708251953
			]
		},
		{
			"name":"foot.right",
			"rotation":[
				0.0921989306807518,
				-0.027775531634688377,
				0.6292910575866699,
				0.7711814045906067
			],
			"scale":[
				1,
				0.9999999403953552,
				1
			],
			"translation":[
				2.220446049250313e-16,
				0.703716516494751,
				7.450580596923828e-09
			]
		},
		{
			"children":[
				12
			],
			"name":"leg.right",
			"rotation":[
				-0.6366931796073914,
				0.30760669708251953,
				0.6366931200027466,
				0.30760669708251953
			]
		},
		{
			"mesh":0,
			"name":"Plane",
			"skin":0
		},
		{
			"children":[
				14,
				9,
				11,
				13
			],
			"name":"Armature",
			"translation":[
				0,
				0.5806596279144287,
				0
			]
		}
	],
	"animations":[
		{
			"channels":[
				{
					"sampler":0,
					"target":{
						"node":9,
						"path":"translation"
					}
				},
				{
					"sampler":1,
					"target":{
						"node":9,
						"path":"rotation"
					}
				},
				{
					"sampler":2,
					"target":{
						"node":9,
						"path":"scale"
					}
				},
				{
					"sampler":3,
					"target":{
						"node":1,
						"path":"translation"
					}
				},
				{
					"sampler":4,
					"target":{
						"node":1,
						"path":"rotation"
					}
				},
				{
					"sampler":5,
					"target":{
						"node":1,
						"path":"scale"
					}
				},
				{
					"sampler":6,
					"target":{
						"node":0,
						"path":"translation"
					}
				},
				{
					"sampler":7,
					"target":{
						"node":0,
						"path":"rotation"
					}
				},
				{
					"sampler":8,
					"target":{
						"node":0,
						"path":"scale"
					}
				},
				{
					"sampler":9,
					"target":{
						"node":3,
						"path":"translation"
					}
				},
				{
					"sampler":10,
					"target":{
						"node":3,
						"path":"rotation"
					}
				},
				{
					"sampler":11,
					"target":{
						"node":3,
						"path":"scale"
					}
				},
				{
					"sampler":12,
					"target":{
						"node":2,
						"path":"translation"
					}
				},
				{
					"sampler":13,
					"target":{
						"node":2,
						"path":"rotation"
					}
				},
				{
					"sampler":14,
					"target":{
						"node":2,
						"path":"scale"
					}
				},
				{
					"sampler":15,
					"target":{
						"node":6,
						"path":"translation"
					}
				},
				{
					"sampler":16,
					"target":{
						"node":6,
						"path":"rotation"
					}
				},
				{
					"sampler":17,
					"target":{
						"node":6,
						"path":"scale"
					}
				},
				{
					"sampler":18,
					"target":{
						"node":4,
						"path":"translation"
					}
				},
				{
					"sampler":19,
					"target":{
						"node":4,
						"path":"rotation"
					}
				},
				{
					"sampler":20,
					"target":{
						"node":4,
						"path":"scale"
					}
				},
				{
					"sampler":21,
					"target":{
						"node":5,
						"path":"translation"
					}
				},
				{
					"sampler":22,
					"target":{
						"node":5,
						"path":"rotation"
					}
				},
				{
					"sampler":23,
					"target":{
						"node":5,
						"path":"scale"
					}
				},
				{
					"sampler":24,
					"target":{
						"node":8,
						"path":"translation"
					}
				},
				{
					"sampler":25,
					"target":{
						"node":8,
						"path":"rotation"
					}
				},
				{
					"sampler":26,
					"target":{
						"node":8,
						"path":"scale"
					}
				},
				{
					"sampler":27,
					"target":{
						"node":7,
						"path":"translation"
					}
				},
				{
					"sampler":28,
					"target":{
						"node":7,
						"path":"rotation"
					}
				},
				{
					"sampler":29,
					"target":{
						"node":7,
						"path":"scale"
					}
				},
				{
					"sampler":30,
					"target":{
						"node":11,
						"path":"translation"
					}
				},
				{
					"sampler":31,
					"target":{
						"node":11,
						"path":"rotation"
					}
				},
				{
					"sampler":32,
					"target":{
						"node":11,
						"path":"scale"
					}
				},
				{
					"sampler":33,
					"target":{
						"node":10,
						"path":"translation"
					}
				},
				{
					"sampler":34,
					"target":{
						"node":10,
						"path":"rotation"
					}
				},
				{
					"sampler":35,
					"target":{
						"node":10,
						"path":"scale"
					}
				},
				{
					"sampler":36,
					"target":{
						"node":13,
						"path":"translation"
					}
				},
				{
					"sampler":37,
					"target":{
						"node":13,
						"path":"rotation"
					}
				},
				{
					"sampler":38,
					"target":{
						"node":13,
						"path":"scale"
					}
				},
				{
					"sampler":39,
					"target":{
						"node":12,
						"path":"translation"
					}
				},
				{
					"sampler":40,
					"target":{
						"node":12,
						"path":"rotation"
					}
				},
				{
					"sampler":41,
					"target":{
						"node":12,
						"path":"scale"
					}
				}
			],
			"name":"ArmatureAction.005",
			"samplers":[
				{
					"input":7,
					"interpolation":"STEP",
					"output":8
				},
				{
					"input":9,
					"interpolation":"LINEAR",
					"output":10
				},
				{
					"input":7,
					"interpolation":"STEP",
					"output":11
				},
				{
					"input":7,
					"interpolation":"STEP",
					"output":12
				},
				{
					"input":9,
					"interpolation":"LINEAR",
					"output":13
				},
				{
					"input":7,
					"interpolation":"STEP",
					"output":14
				},
				{
					"input":7,
					"interpolation":"STEP",
					"output":15
				},
				{
					"input":7,
					"interpolation":"STEP",
					"output":16
				},
				{
					"input":7,
					"interpolation":"STEP",
					"output":17
				},
				{
					"input":7,
					"interpolation":"STEP",
					"output":18
				},
				{
					"input":9,
					"interpolation":"LINEAR",
					"output":19
				},
				{
					"input":7,
					"interpolation":"STEP",
					"output":20
				},
				{
					"input":7,
					"interpolation":"STEP",
					"output":21
				},
				{
					"input":9,
					"interpolation":"LINEAR",
					"output":22
				},
				{
					"input":7,
					"interpolation":"STEP",
					"output":23
				},
				{
					"input":7,
					"interpolation":"STEP",
					"output":24
				},
				{
					"input":9,
					"interpolation":"LINEAR",
					"output":25
				},
				{
					"input":7,
					"interpolation":"STEP",
					"output":26
				},
				{
					"input":7,
					"interpolation":"STEP",
					"output":27
				},
				{
					"input":9,
					"interpolation":"LINEAR",
					"output":28
				},
				{
					"input":7,
					"interpolation":"STEP",
					"output":29
				},
				{
					"input":7,
					"interpolation":"STEP",
					"output":30
				},
				{
					"input":9,
					"interpolation":"LINEAR",
					"output":31
				},
				{
					"input":7,
					"interpolation":"STEP",
					"output":32
				},
				{
					"input":7,
					"interpolation":"STEP",
					"output":33
				},
				{
					"input":9,
					"interpolation":"LINEAR",
					"output":34
				},
				{
					"input":7,
					"interpolation":"STEP",
					"output":35
				},
				{
					"input":7,
					"interpolation":"STEP",
					"output":36
				},
				{
					"input":9,
					"interpolation":"LINEAR",
					"output":37
				},
				{
					"input":7,
					"interpolation":"STEP",
					"output":38
				},
				{
					"input":9,
					"interpolation":"LINEAR",
					"output":39
				},
				{
					"input":7,
					"interpolation":"STEP",
					"output":40
				},
				{
					"input":7,
					"interpolation":"STEP",
					"output":41
				},
				{
					"input":7,
					"interpolation":"STEP",
					"output":42
				},
				{
					"input":9,
					"interpolation":"LINEAR",
					"output":43
				},
				{
					"input":7,
					"interpolation":"STEP",
					"output":44
				},
				{
					"input":7,
					"interpolation":"STEP",
					"output":45
				},
				{
					"input":7,
					"interpolation":"STEP",
					"output":46
				},
				{
					"input":7,
					"interpolation":"STEP",
					"output":47
				},
				{
					"input":7,
					"interpolation":"STEP",
					"output":48
				},
				{
					"input":9,
					"interpolation":"LINEAR",
					"output":49
				},
				{
					"input":7,
					"interpolation":"STEP",
					"output":50
				}
			]
		}
	],
	"materials":[
		{
			"doubleSided":true,
			"extensions":{
				"KHR_materials_specular":{
					"specularTexture":{
						"index":0
					}
				},
				"KHR_materials_ior":{
					"ior":1.4500000476837158
				}
			},
			"name":"Material.001",
			"normalTexture":{
				"index":1
			},
			"pbrMetallicRoughness":{
				"baseColorTexture":{
					"index":2
				},
				"metallicFactor":0,
				"roughnessFactor":0
			}
		}
	],
	"meshes":[
		{
			"name":"Plane",
			"primitives":[
				{
					"attributes":{
						"POSITION":0,
						"NORMAL":1,
						"TEXCOORD_0":2,
						"JOINTS_0":3,
						"WEIGHTS_0":4
					},
					"indices":5,
					"material":0
				}
			]
		}
	],
	"textures":[
		{
			"sampler":0,
			"source":0
		},
		{
			"sampler":0,
			"source":1
		},
		{
			"sampler":0,
			"source":2
		}
	],
	"images":[
		{
			"mimeType":"image/png",
			"name":"tg_specular",
			"uri":"tg_specular.png"
		},
		{
			"mimeType":"image/png",
			"name":"tg_normal",
			"uri":"tg_normal.png"
		},
		{
			"mimeType":"image/png",
			"name":"tGunther_diffuse",
			"uri":"tGunther_diffuse.png"
		}
	],
	"skins":[
		{
			"inverseBindMatrices":6,
			"joints":[
				9,
				1,
				0,
				3,
				2,
				6,
				4,
				5,
				8,
				7,
				11,
				10,
				13,
				12
			],
			"name":"Armature"
		}
	],
	"accessors":[
		{
			"bufferView":0,
			"componentType":5126,
			"count":4251,
			"max":[
				1.6184157133102417,
				3.7019202709198,
				1.8961422443389893
			],
			"min":[
				-1.6184157133102417,
				0.014300261624157429,
				-0.9173327088356018
			],
			"type":"VEC3"
		},
		{
			"bufferView":1,
			"componentType":5126,
			"count":4251,
			"type":"VEC3"
		},
		{
			"bufferView":2,
			"componentType":5126,
			"count":4251,
			"type":"VEC2"
		},
		{
			"bufferView":3,
			"componentType":5121,
			"count":4251,
			"type":"VEC4"
		},
		{
			"bufferView":4,
			"componentType":5126,
			"count":4251,
			"type":"VEC4"
		},
		{
			"bufferView":5,
			"componentType":5123,
			"count":8436,
			"type":"SCALAR"
		},
		{
			"bufferView":6,
			"componentType":5126,
			"count":14,
			"type":"MAT4"
		},
		{
			"bufferView":7,
			"componentType":5126,
			"count":2,
			"max":[
				2.4
			],
			"min":[
				0
			],
			"type":"SCALAR"
		},
		{
			"bufferView":8,
			"componentType":5126,
			"count":2,
			"type":"VEC3"
		},
		{
			"bufferView":9,
			"componentType":5126,
			"count":61,
			"max":[
				2.4
			],
			"min":[
				0
			],
			"type":"SCALAR"
		},
		{
			"bufferView":10,
			"componentType":5126,
			"count":61,
			"type":"VEC4"
		},
		{
			"bufferView":11,
			"componentType":5126,
			"count":2,
			"type":"VEC3"
		},
		{
			"bufferView":12,
			"componentType":5126,
			"count":2,
			"type":"VEC3"
		},
		{
			"bufferView":13,
			"componentType":5126,
			"count":61,
			"type":"VEC4"
		},
		{
			"bufferView":14,
			"componentType":5126,
			"count":2,
			"type":"VEC3"
		},
		{
			"bufferView":15,
			"componentType":5126,
			"count":2,
			"type":"VEC3"
		},
		{
			"bufferView":16,
			"componentType":5126,
			"count":2,
			"type":"VEC4"
		},
		{
			"bufferView":17,
			"componentType":5126,
			"count":2,
			"type":"VEC3"
		},
		{
			"bufferView":18,
			"componentType":5126,
			"count":2,
			"type":"VEC3"
		},
		{
			"bufferView":19,
			"componentType":5126,
			"count":61,
			"type":"VEC4"
		},
		{
			"bufferView":20,
			"componentType":5126,
			"count":2,
			"type":"VEC3"
		},
		{
			"bufferView":21,
			"componentType":5126,
			"count":2,
			"type":"VEC3"
		},
		{
			"bufferView":22,
			"componentType":5126,
			"count":61,
			"type":"VEC4"
		},
		{
			"bufferView":23,
			"componentType":5126,
			"count":2,
			"type":"VEC3"
		},
		{
			"bufferView":24,
			"componentType":5126,
			"count":2,
			"type":"VEC3"
		},
		{
			"bufferView":25,
			"componentType":5126,
			"count":61,
			"type":"VEC4"
		},
		{
			"bufferView":26,
			"componentType":5126,
			"count":2,
			"type":"VEC3"
		},
		{
			"bufferView":27,
			"componentType":5126,
			"count":2,
			"type":"VEC3"
		},
		{
			"bufferView":28,
			"componentType":5126,
			"count":61,
			"type":"VEC4"
		},
		{
			"bufferView":29,
			"componentType":5126,
			"count":2,
			"type":"VEC3"
		},
		{
			"bufferView":30,
			"componentType":5126,
			"count":2,
			"type":"VEC3"
		},
		{
			"bufferView":31,
			"componentType":5126,
			"count":61,
			"type":"VEC4"
		},
		{
			"bufferView":32,
			"componentType":5126,
			"count":2,
			"type":"VEC3"
		},
		{
			"bufferView":33,
			"componentType":5126,
			"count":2,
			"type":"VEC3"
		},
		{
			"bufferView":34,
			"componentType":5126,
			"count":61,
			"type":"VEC4"
		},
		{
			"bufferView":35,
			"componentType":5126,
			"count":2,
			"type":"VEC3"
		},
		{
			"bufferView":36,
			"componentType":5126,
			"count":2,
			"type":"VEC3"
		},
		{
			"bufferView":37,
			"componentType":5126,
			"count":61,
			"type":"VEC4"
		},
		{
			"bufferView":38,
			"componentType":5126,
			"count":2,
			"type":"VEC3"
		},
		{
			"bufferView":39,
			"componentType":5126,
			"count":61,
			"type":"VEC3"
		},
		{
			"bufferView":40,
			"componentType":5126,
			"count":2,
			"type":"VEC4"
		},
		{
			"bufferView":41,
			"componentType":5126,
			"count":2,
			"type":"VEC3"
		},
		{
			"bufferView":42,
			"componentType":5126,
			"count":2,
			"type":"VEC3"
		},
		{
			"bufferView":43,
			"componentType":5126,
			"count":61,
			"type":"VEC4"
		},
		{
			"bufferView":44,
			"componentType":5126,
			"count":2,
			"type":"VEC3"
		},
		{
			"bufferView":45,
			"componentType":5126,
			"count":2,
			"type":"VEC3"
		},
		{
			"bufferView":46,
			"componentType":5126,
			"count":2,
			"type":"VEC4"
		},
		{
			"bufferView":47,
			"componentType":5126,
			"count":2,
			"type":"VEC3"
		},
		{
			"bufferView":48,
			"componentType":5126,
			"count":2,
			"type":"VEC3"
		},
		{
			"bufferView":49,
			"componentType":5126,
			"count":61,
			"type":"VEC4"
		},
		{
			"bufferView":50,
			"componentType":5126,
			"count":2,
			"type":"VEC3"
		}
	],
	"bufferViews":[
		{
			"buffer":0,
			"byteLength":51012,
			"byteOffset":0,
			"target":34962
		},
		{
			"buffer":0,
			"byteLength":51012,
			"byteOffset":51012,
			"target":34962
		},
		{
			"buffer":0,
			"byteLength":34008,
			"byteOffset":102024,
			"target":34962
		},
		{
			"buffer":0,
			"byteLength":17004,
			"byteOffset":136032,
			"target":34962
		},
		{
			"buffer":0,
			"byteLength":68016,
			"byteOffset":153036,
			"target":34962
		},
		{
			"buffer":0,
			"byteLength":16872,
			"byteOffset":221052,
			"target":34963
		},
		{
			"buffer":0,
			"byteLength":896,
			"byteOffset":237924
		},
		{
			"buffer":0,
			"byteLength":8,
			"byteOffset":238820
		},
		{
			"buffer":0,
			"byteLength":24,
			"byteOffset":238828
		},
		{
			"buffer":0,
			"byteLength":244,
			"byteOffset":238852
		},
		{
			"buffer":0,
			"byteLength":976,
			"byteOffset":239096
		},
		{
			"buffer":0,
			"byteLength":24,
			"byteOffset":240072
		},
		{
			"buffer":0,
			"byteLength":24,
			"byteOffset":240096
		},
		{
			"buffer":0,
			"byteLength":976,
			"byteOffset":240120
		},
		{
			"buffer":0,
			"byteLength":24,
			"byteOffset":241096
		},
		{
			"buffer":0,
			"byteLength":24,
			"byteOffset":241120
		},
		{
			"buffer":0,
			"byteLength":32,
			"byteOffset":241144
		},
		{
			"buffer":0,
			"byteLength":24,
			"byteOffset":241176
		},
		{
			"buffer":0,
			"byteLength":24,
			"byteOffset":241200
		},
		{
			"buffer":0,
			"byteLength":976,
			"byteOffset":241224
		},
		{
			"buffer":0,
			"byteLength":24,
			"byteOffset":242200
		},
		{
			"buffer":0,
			"byteLength":24,
			"byteOffset":242224
		},
		{
			"buffer":0,
			"byteLength":976,
			"byteOffset":242248
		},
		{
			"buffer":0,
			"byteLength":24,
			"byteOffset":243224
		},
		{
			"buffer":0,
			"byteLength":24,
			"byteOffset":243248
		},
		{
			"buffer":0,
			"byteLength":976,
			"byteOffset":243272
		},
		{
			"buffer":0,
			"byteLength":24,
			"byteOffset":244248
		},
		{
			"buffer":0,
			"byteLength":24,
			"byteOffset":244272
		},
		{
			"buffer":0,
			"byteLength":976,
			"byteOffset":244296
		},
		{
			"buffer":0,
			"byteLength":24,
			"byteOffset":245272
		},
		{
			"buffer":0,
			"byteLength":24,
			"byteOffset":245296
		},
		{
			"buffer":0,
			"byteLength":976,
			"byteOffset":245320
		},
		{
			"buffer":0,
			"byteLength":24,
			"byteOffset":246296
		},
		{
			"buffer":0,
			"byteLength":24,
			"byteOffset":246320
		},
		{
			"buffer":0,
			"byteLength":976,
			"byteOffset":246344
		},
		{
			"buffer":0,
			"byteLength":24,
			"byteOffset":247320
		},
		{
			"buffer":0,
			"byteLength":24,
			"byteOffset":247344
		},
		{
			"buffer":0,
			"byteLength":976,
			"byteOffset":247368
		},
		{
			"buffer":0,
			"byteLength":24,
			"byteOffset":248344
		},
		{
			"buffer":0,
			"byteLength":732,
			"byteOffset":248368
		},
		{
			"buffer":0,
			"byteLength":32,
			"byteOffset":249100
		},
		{
			"buffer":0,
			"byteLength":24,
			"byteOffset":249132
		},
		{
			"buffer":0,
			"byteLength":24,
			"byteOffset":249156
		},
		{
			"buffer":0,
			"byteLength":976,
			"byteOffset":249180
		},
		{
			"buffer":0,
			"byteLength":24,
			"byteOffset":250156
		},
		{
			"buffer":0,
			"byteLength":24,
			"byteOffset":250180
		},
		{
			"buffer":0,
			"byteLength":32,
			"byteOffset":250204
		},
		{
			"buffer":0,
			"byteLength":24,
			"byteOffset":250236
		},
		{
			"buffer":0,
			"byteLength":24,
			"byteOffset":250260
		},
		{
			"buffer":0,
			"byteLength":976,
			"byteOffset":250284
		},
		{
			"buffer":0,
			"byteLength":24,
			"byteOffset":251260
		}
	],
	"samplers":[
		{
			"magFilter":9729,
			"minFilter":9987
		}
	],
	"buffers":[
		{
			"byteLength":251284,
			"uri":"gunther.bin"
		}
	]
}
