{
	"asset":{
		"generator":"Khronos glTF Blender I/O v4.1.63",
		"version":"2.0"
	},
	"scene":0,
	"scenes":[
		{
			"name":"Scene",
			"nodes":[
				0
			]
		}
	],
	"nodes":[
		{
			"mesh":0,
			"name":"Sphere",
			"scale":[
				15.037287712097168,
				15.037287712097168,
				15.037287712097168
			]
		}
	],
	"meshes":[
		{
			"name":"Sphere",
			"primitives":[
				{
					"attributes":{
						"POSITION":0,
						"NORMAL":1,
						"TEXCOORD_0":2
					},
					"indices":3
				}
			]
		}
	],
	"accessors":[
		{
			"bufferView":0,
			"componentType":5126,
			"count":1036,
			"max":[
				1.3326795101165771,
				0.43874797224998474,
				1.2718658447265625
			],
			"min":[
				-1.3348524570465088,
				-0.020001664757728577,
				-1.2718658447265625
			],
			"type":"VEC3"
		},
		{
			"bufferView":1,
			"componentType":5126,
			"count":1036,
			"type":"VEC3"
		},
		{
			"bufferView":2,
			"componentType":5126,
			"count":1036,
			"type":"VEC2"
		},
		{
			"bufferView":3,
			"componentType":5123,
			"count":2016,
			"type":"SCALAR"
		}
	],
	"bufferViews":[
		{
			"buffer":0,
			"byteLength":12432,
			"byteOffset":0,
			"target":34962
		},
		{
			"buffer":0,
			"byteLength":12432,
			"byteOffset":12432,
			"target":34962
		},
		{
			"buffer":0,
			"byteLength":8288,
			"byteOffset":24864,
			"target":34962
		},
		{
			"buffer":0,
			"byteLength":4032,
			"byteOffset":33152,
			"target":34963
		}
	],
	"buffers":[
		{
			"byteLength":37184,
			"uri":"Pool.bin"
		}
	]
}
